  <svg
    width="139"
    height="45"
    viewBox="0 0 139 45"
    fill="none"
    xmlns="http://www.w3.org/2000/svg"
  >
    <g clip-path="url(#clip0_16514_6216)">
      <mask
        id="mask0_16514_6216"
        style="mask-type:luminance"
        maskUnits="userSpaceOnUse"
        x="0"
        y="0"
        width="139"
        height="45"
      >
        <path d="M139 0H0V44.9335H139V0Z" fill="white" />
      </mask>
      <g mask="url(#mask0_16514_6216)">
        <path
          d="M116.912 24.1045C116.884 24.9083 116.856 25.712 116.828 26.5401C117.604 26.5401 118.38 26.5401 119.179 26.5401C119.207 27.1222 119.235 27.7042 119.263 28.3039C119.355 28.1792 119.447 28.0544 119.541 27.9259C120.341 26.9349 121.429 26.3995 122.683 26.2278C124.21 26.0969 125.742 26.2055 127.016 27.1491C127.917 28.071 128.266 29.112 128.26 30.3774C128.261 30.4501 128.261 30.5229 128.262 30.5979C128.261 30.7023 128.261 30.7023 128.261 30.8087C128.261 30.8721 128.261 30.9354 128.261 31.0006C128.25 31.1595 128.25 31.1595 128.166 31.3275C125.865 31.3275 123.565 31.3275 121.195 31.3275C121.291 32.7431 121.291 32.7431 122.024 33.8674C122.841 34.5422 123.877 34.6016 124.89 34.519C125.55 34.4265 126.219 34.3022 126.851 34.0879C127.074 34.0151 127.074 34.0151 127.41 34.0151C127.347 34.7243 127.21 35.4166 127.074 36.1148C126.88 36.1554 126.686 36.1956 126.491 36.2355C126.383 36.2579 126.275 36.2803 126.164 36.3034C124.204 36.6746 121.92 36.6967 120.187 35.6108C119.801 35.3181 119.45 35.0081 119.179 34.603C119.179 34.5475 119.179 34.4921 119.179 34.435C119.124 34.435 119.068 34.435 119.011 34.435C119.007 34.4919 119.003 34.5489 118.999 34.6076C118.955 35.1483 118.878 35.6694 118.759 36.1988C118.045 36.4037 117.373 36.476 116.634 36.4769C116.518 36.4776 116.518 36.4776 116.4 36.4783C115.62 36.4704 114.924 36.371 114.308 35.8628C113.655 35.1838 113.699 34.3682 113.714 33.4838C113.733 32.7467 113.78 32.0104 113.823 31.2745C113.841 30.9676 113.858 30.6608 113.875 30.354C113.886 30.1584 113.897 29.9627 113.909 29.7671C113.914 29.6757 113.919 29.5843 113.924 29.49C113.929 29.4053 113.934 29.3206 113.939 29.2332C113.943 29.159 113.948 29.0847 113.953 29.0081C113.972 28.8078 113.972 28.8078 114.056 28.4719C113.612 28.4719 113.169 28.4719 112.712 28.4719C112.74 28.6104 112.768 28.749 112.796 28.8918C112.831 29.7467 112.781 30.6053 112.744 31.4597C112.738 31.5892 112.733 31.7188 112.727 31.8483C112.716 32.1169 112.705 32.3856 112.693 32.6544C112.679 32.9986 112.663 33.343 112.65 33.6873C112.638 33.9536 112.627 34.2198 112.616 34.4861C112.61 34.6131 112.605 34.7402 112.6 34.8673C112.592 35.0439 112.584 35.2205 112.577 35.3972C112.573 35.4975 112.569 35.5978 112.563 35.7012C112.544 35.9468 112.544 35.9468 112.46 36.1988C111.546 36.1988 110.631 36.1988 109.689 36.1988C109.768 34.053 109.768 34.053 109.809 33.4529C109.856 32.7444 109.871 32.0354 109.876 31.3255C109.877 31.2092 109.878 31.0928 109.88 30.9765C109.909 29.8942 109.909 29.8942 109.379 28.9916C108.749 28.5755 108.177 28.4673 107.421 28.5559C106.742 28.7394 106.277 29.0243 105.899 29.6215C105.195 30.8621 105.21 32.3091 105.148 33.7001C105.138 33.9098 105.128 34.1195 105.118 34.3292C105.112 34.4581 105.106 34.587 105.1 34.7159C105.077 35.2131 105.031 35.7015 104.985 36.1988C104.043 36.1988 103.101 36.1988 102.13 36.1988C102.168 35.6349 102.168 35.6349 102.209 35.0597C102.224 34.8346 102.239 34.6095 102.255 34.3844C102.278 34.0436 102.302 33.7029 102.328 33.3622C102.377 32.678 102.382 32.0182 102.382 31.3275C100.081 31.3275 97.7808 31.3275 95.4106 31.3275C95.5072 32.7431 95.5072 32.7431 96.2396 33.8674C97.0568 34.5422 98.0932 34.6016 99.1061 34.519C99.7654 34.4265 100.435 34.3022 101.066 34.0879C101.29 34.0151 101.29 34.0151 101.626 34.0151C101.563 34.7243 101.426 35.4166 101.29 36.1148C101.096 36.1554 100.902 36.1956 100.707 36.2355C100.599 36.2579 100.491 36.2803 100.379 36.3034C98.4165 36.6754 96.1396 36.693 94.4028 35.6108C93.3848 34.8771 92.9305 33.8871 92.6709 32.6821C92.4559 30.9243 92.7927 29.3091 93.7913 27.839C94.5581 26.8983 95.7146 26.3898 96.8989 26.2278C98.4258 26.0969 99.9577 26.2055 101.232 27.1491C101.876 27.8077 102.302 28.5716 102.466 29.4797C102.594 29.2231 102.57 28.9526 102.576 28.6707C102.578 28.6147 102.579 28.5587 102.581 28.5011C102.587 28.2919 102.592 28.0827 102.597 27.8734C102.609 27.4057 102.621 26.9381 102.634 26.4562C103.576 26.4562 104.518 26.4562 105.489 26.4562C105.489 26.8719 105.489 27.2876 105.489 27.716C105.54 27.6449 105.59 27.5739 105.641 27.5008C106.259 26.7668 107.241 26.3698 108.172 26.2252C108.285 26.2159 108.399 26.2091 108.513 26.2042C108.591 26.1998 108.669 26.1955 108.75 26.1911C109.846 26.1588 111.145 26.2787 111.982 27.0565C112.29 27.3863 112.458 27.6259 112.628 28.0519C112.656 27.553 112.684 27.0541 112.712 26.5401C113.211 26.5401 113.71 26.5401 114.224 26.5401C114.221 26.2933 114.221 26.2933 114.219 26.0414C114.218 25.5839 114.247 25.1454 114.308 24.6924C114.793 24.5132 115.294 24.4119 115.799 24.304C115.887 24.2847 115.976 24.2654 116.067 24.2456C116.721 24.1045 116.721 24.1045 116.912 24.1045ZM95.9145 28.8918C95.6559 29.3077 95.5761 29.6652 95.4946 30.1516C96.9358 30.1516 98.3771 30.1516 99.862 30.1516C99.862 29.4727 99.8477 29.0042 99.4051 28.4824C99.2984 28.394 99.2984 28.394 99.1901 28.3039C99.112 28.2338 99.112 28.2338 99.033 28.1621C97.9244 27.4779 96.6898 27.9951 95.9145 28.8918ZM121.699 28.8918C121.479 29.2907 121.279 29.6904 121.279 30.1516C122.72 30.1516 124.161 30.1516 125.646 30.1516C125.646 29.4384 125.619 28.936 125.132 28.3984C124.713 28.0186 124.273 27.9051 123.72 27.8525C122.865 27.8981 122.245 28.2282 121.699 28.8918ZM116.744 28.4719C116.693 28.7762 116.649 29.043 116.634 29.3448C116.631 29.4129 116.628 29.4811 116.624 29.5513C116.621 29.6235 116.618 29.6957 116.614 29.7701C116.611 29.8458 116.607 29.9217 116.603 29.9998C116.596 30.1596 116.589 30.3195 116.581 30.4794C116.571 30.7222 116.559 30.9648 116.547 31.2075C116.54 31.3636 116.533 31.5195 116.525 31.6756C116.522 31.7472 116.518 31.8189 116.515 31.8928C116.416 33.1371 116.416 33.1371 116.927 34.225C117.529 34.5458 118.123 34.4232 118.759 34.267C118.842 34.2255 118.842 34.2255 118.927 34.183C118.911 34.1251 118.894 34.0672 118.878 34.0075C118.845 33.8892 118.845 33.8892 118.811 33.7683C118.79 33.6914 118.768 33.6144 118.747 33.5351C118.723 33.444 118.7 33.353 118.675 33.2592C118.66 33.2027 118.646 33.1463 118.631 33.0882C118.513 32.6101 118.475 32.155 118.475 31.6634C118.476 31.5871 118.476 31.511 118.476 31.4324C118.494 30.4462 118.686 29.5024 119.179 28.6398C119.179 28.5844 119.179 28.529 119.179 28.4719C118.375 28.4719 117.572 28.4719 116.744 28.4719Z"
          fill="#00591B"
        />
        <path
          d="M92.6391 26.6244C92.6811 26.6659 92.6811 26.6659 92.7231 26.7083C92.718 26.9506 92.708 27.1901 92.6937 27.4318C92.6878 27.5446 92.6878 27.5446 92.6811 27.6597C92.6458 28.295 92.6063 28.9302 92.566 29.5654C92.4745 31.0345 92.388 32.5026 92.3418 33.974C92.3384 34.0816 92.335 34.1893 92.3317 34.3002C92.3157 34.8236 92.3006 35.347 92.288 35.8705C92.2191 38.4156 92.2191 38.4156 91.5472 39.3905C91.4868 39.4789 91.4263 39.5672 91.3633 39.6583C90.3277 40.6942 88.8084 40.8987 87.405 40.9102C86.2367 40.901 85.0651 40.7819 83.9148 40.5769C83.84 40.5643 83.7652 40.5518 83.688 40.5389C83.6193 40.5257 83.5506 40.5124 83.4798 40.4988C83.4196 40.4876 83.3594 40.4763 83.2974 40.4647C83.1485 40.3984 83.1485 40.3984 83.0459 40.2515C82.9711 40.0353 82.9537 39.8541 82.9457 39.6254C82.9408 39.5021 82.9408 39.5021 82.9359 39.3762C82.9333 39.2908 82.9307 39.2055 82.928 39.1176C82.9247 39.031 82.9215 38.9444 82.9182 38.8551C82.9103 38.6417 82.903 38.4282 82.8965 38.2147C83.5066 38.2774 84.0849 38.4169 84.6787 38.5661C85.9268 38.873 87.3 39.0185 88.4766 38.3985C89.1191 37.8498 89.3342 37.277 89.4475 36.4509C89.4685 36.1747 89.482 35.8983 89.4946 35.6216C89.5005 35.5109 89.5005 35.5109 89.5055 35.3978C89.5147 35.217 89.5231 35.0361 89.5315 34.8552C89.4702 34.9321 89.4089 35.009 89.3459 35.0882C88.7404 35.8126 87.8526 36.2257 86.9279 36.367C85.6295 36.4608 84.4587 36.356 83.4004 35.5271C83.3259 35.4769 83.2514 35.4266 83.1747 35.3749C82.3942 34.6366 81.9982 33.5265 81.9526 32.4701C81.9169 30.8884 82.2316 29.3612 83.2534 28.0994C85.6765 25.6105 89.5248 26.0188 92.6391 26.6244ZM85.522 29.3888C84.9357 30.1205 84.6073 31.0399 84.6392 31.9832C84.7207 32.7075 84.8946 33.3217 85.4161 33.8473C85.9973 34.3073 86.5651 34.3999 87.2907 34.3884C87.9106 34.314 88.4682 34.0326 88.8966 33.5744C89.5685 32.6741 89.7138 31.7281 89.7944 30.6348C89.8011 30.5424 89.8079 30.45 89.8154 30.3548C89.8616 29.7259 89.8902 29.1028 89.8675 28.4721C88.3943 27.9704 86.5894 28.216 85.522 29.3888Z"
          fill="#00591B"
        />
        <path
          d="M27.4887 3.76299C27.7857 3.96987 27.9986 4.25267 28.2203 4.53496C28.3034 4.61811 28.3034 4.61811 28.3883 4.70293C28.4813 4.62693 28.4813 4.62693 28.5762 4.54939C29.5324 3.79611 30.3313 3.49427 31.5798 3.61109C32.0663 3.71434 32.4781 3.9294 32.7717 4.33844C33.4641 5.59054 32.8324 7.38069 32.5457 8.66608C32.4994 8.87848 32.4533 9.09097 32.4072 9.30346C32.3155 9.72668 32.2231 10.1497 32.1301 10.5728C32.0123 11.1102 31.8981 11.6483 31.7862 12.187C31.7705 12.2627 31.7547 12.3383 31.7385 12.4162C31.6802 12.6969 31.622 12.9776 31.5638 13.2583C31.5253 13.444 31.4865 13.6297 31.4476 13.8153C31.4263 13.9177 31.405 14.02 31.383 14.1255C31.3278 14.3616 31.3278 14.3616 31.2438 14.5295C30.4124 14.5295 29.5809 14.5295 28.7242 14.5295C28.7808 14.0201 28.8475 13.539 28.9565 13.0419C28.9713 12.973 28.986 12.9042 29.0012 12.8333C29.033 12.6854 29.0649 12.5374 29.097 12.3896C29.1479 12.1552 29.1982 11.9207 29.2485 11.6861C29.3912 11.0198 29.5348 10.3536 29.6787 9.68762C29.767 9.27894 29.8547 8.87017 29.942 8.46132C29.9753 8.30611 30.0088 8.15094 30.0426 7.99582C30.0898 7.77891 30.1362 7.56185 30.1826 7.34474C30.1965 7.28129 30.2105 7.21783 30.225 7.15246C30.3212 6.69557 30.3891 6.25881 30.2412 5.80527C30.0091 5.56611 29.8297 5.54904 29.5034 5.53264C29.2058 5.54846 29.0471 5.61557 28.8082 5.79478C28.4701 6.23055 28.2981 6.67959 28.1728 7.21107C28.147 7.31491 28.147 7.31491 28.1206 7.42084C27.9437 8.14058 27.7879 8.86488 27.6363 9.59028C27.607 9.72886 27.5777 9.86744 27.5483 10.0059C27.4724 10.3647 27.3969 10.7234 27.3214 11.0822C27.1997 11.6613 27.0775 12.2404 26.955 12.8192C26.9125 13.0204 26.8703 13.2218 26.8281 13.4231C26.8023 13.5452 26.7765 13.6674 26.7507 13.7896C26.7283 13.8963 26.7059 14.003 26.6828 14.1129C26.6245 14.3616 26.6245 14.3616 26.5405 14.5295C25.709 14.5295 24.8776 14.5295 24.0209 14.5295C24.0718 14.2862 24.1227 14.043 24.1751 13.7924C24.2841 13.271 24.3929 12.7495 24.501 12.2279C24.5398 12.0407 24.5786 11.8536 24.6174 11.6664C24.6371 11.5711 24.6568 11.4758 24.6772 11.3777C24.7987 10.7928 24.9224 10.2085 25.048 9.62455C25.1282 9.25013 25.2073 8.87555 25.2862 8.50096C25.3244 8.32133 25.363 8.14185 25.4022 7.9625C25.4572 7.71087 25.5102 7.45892 25.5628 7.20682C25.5795 7.13306 25.596 7.0593 25.613 6.9833C25.7106 6.50397 25.6938 6.17521 25.5327 5.71079C25.3314 5.53194 25.1826 5.54124 24.9133 5.51132C24.5453 5.54938 24.3862 5.64115 24.1049 5.87876C23.7988 6.27331 23.6737 6.63968 23.5587 7.11544C23.5322 7.22036 23.5322 7.22036 23.5054 7.3274C23.3245 8.05597 23.1684 8.78954 23.017 9.52469C22.9877 9.66512 22.9584 9.80554 22.929 9.94597C22.853 10.3096 22.7774 10.6734 22.7021 11.0372C22.5804 11.6242 22.4582 12.2112 22.3357 12.798C22.2932 13.002 22.251 13.2061 22.2088 13.4102C22.183 13.5341 22.1572 13.658 22.1314 13.7819C22.109 13.89 22.0866 13.9983 22.0635 14.1098C22.0052 14.3616 22.0052 14.3616 21.9212 14.5295C21.0897 14.5295 20.2582 14.5295 19.4016 14.5295C19.496 13.6791 19.496 13.6791 19.5716 13.3247C19.5886 13.2443 19.6055 13.1639 19.6229 13.081C19.6414 12.9955 19.6598 12.91 19.6788 12.822C19.6983 12.7298 19.7178 12.6377 19.738 12.5427C19.8022 12.2403 19.8669 11.9379 19.9317 11.6356C19.9766 11.4247 20.0215 11.2138 20.0663 11.0029C20.1601 10.5619 20.2542 10.1211 20.3484 9.68023C20.4813 9.05889 20.6137 8.43738 20.7459 7.81589C20.8489 7.33234 20.952 6.84882 21.0551 6.36531C21.077 6.26225 21.099 6.15921 21.1216 6.05304C21.1837 5.76213 21.2458 5.47124 21.308 5.18035C21.3264 5.094 21.3449 5.00765 21.3638 4.91869C21.3807 4.83946 21.3977 4.76024 21.4152 4.67861C21.4372 4.57557 21.4372 4.57557 21.4597 4.47044C21.4986 4.29528 21.5417 4.12111 21.5852 3.94704C22.3613 3.94704 23.1373 3.94704 23.9369 3.94704C23.9369 4.14105 23.9369 4.33507 23.9369 4.53496C23.9868 4.49642 24.0368 4.45787 24.0882 4.41816C25.0476 3.70795 26.314 3.23208 27.4887 3.76299Z"
          fill="#00591B"
        />
        <path
          d="M0.252319 18.5615C43.129 18.5615 86.0057 18.5615 130.182 18.5615C130.182 18.7833 130.182 19.005 130.182 19.2334C87.305 19.2334 44.4283 19.2334 0.252319 19.2334C0.252319 19.0117 0.252319 18.79 0.252319 18.5615Z"
          fill="#00591B"
        />
        <path
          d="M5.97401 -0.0210409C6.06452 -0.0227731 6.15503 -0.0245054 6.24828 -0.0262901C7.21585 -0.0309531 8.22656 0.175193 8.9874 0.812933C9.89817 1.76107 10.0158 3.06321 10.009 4.31352C9.99391 4.6407 9.95158 4.9662 9.91093 5.29119C9.05174 5.29119 8.19255 5.29119 7.30732 5.29119C7.28107 4.23609 7.28107 4.23609 7.27474 3.90685C7.25478 3.2811 7.22146 2.80758 6.79814 2.32012C6.39328 2.09616 5.97789 2.05157 5.52257 2.13377C5.01945 2.29386 4.7591 2.5908 4.51866 3.04747C3.59728 5.0739 3.24894 7.50182 2.9032 9.69007C2.88256 9.81857 2.88256 9.81857 2.86149 9.94967C2.74237 10.7491 2.64812 11.5235 3.02393 12.2622C3.37018 12.5997 3.65556 12.6957 4.13152 12.7083C4.59097 12.7011 4.92939 12.6382 5.29161 12.3462C5.9148 11.6876 6.15468 10.6952 6.29946 9.82655C7.15866 9.82655 8.01785 9.82655 8.90308 9.82655C8.72863 11.3966 8.24595 12.8483 7.07865 13.9574C6.039 14.7866 4.70973 14.9645 3.42287 14.8393C2.3875 14.7037 1.46351 14.4194 0.774304 13.5945C-0.341081 12.0242 0.0633349 9.90969 0.361705 8.13944C1.46296 1.96427 1.46296 1.96427 3.52786 0.503883C4.35305 0.0802526 5.0594 -0.016757 5.97401 -0.0210409Z"
          fill="#00591B"
        />
        <path
          d="M95.3266 0.335938C96.2135 0.335938 97.1005 0.335938 98.0142 0.335938C98.0235 2.22935 97.9916 4.11852 97.9412 6.01109C97.9336 6.30438 97.9261 6.59768 97.9185 6.89098C97.8773 8.54189 97.8295 10.1922 97.7623 11.8423C97.7799 11.7856 97.7984 11.7289 97.8169 11.6704C98.3779 9.90854 99.0397 8.18925 99.7066 6.46526C100.098 5.45206 100.485 4.43711 100.872 3.42213C100.988 3.11774 101.105 2.81339 101.221 2.50904C101.293 2.32108 101.365 2.13312 101.437 1.94516C101.485 1.81759 101.485 1.81759 101.535 1.68745C101.565 1.60762 101.595 1.52778 101.627 1.44552C101.653 1.37685 101.679 1.30819 101.706 1.23745C101.821 0.937257 101.933 0.636548 102.046 0.335938C103.016 0.335938 103.986 0.335938 104.985 0.335938C104.927 0.626838 104.883 0.826647 104.77 1.08738C104.743 1.14995 104.716 1.21251 104.689 1.27697C104.66 1.34395 104.631 1.41093 104.601 1.47995C104.57 1.55071 104.54 1.62146 104.508 1.69437C104.409 1.92588 104.308 2.15713 104.208 2.38839C104.139 2.55071 104.068 2.71304 103.998 2.87538C103.796 3.34495 103.593 3.8142 103.389 4.28337C103.364 4.34195 103.339 4.40053 103.312 4.46089C103.126 4.89274 102.938 5.32452 102.75 5.75619C102.286 6.82682 101.826 7.89983 101.367 8.97267C101.301 9.12771 101.234 9.28275 101.168 9.43771C100.768 10.3709 100.368 11.304 99.9695 12.2378C99.8511 12.5169 99.7318 12.796 99.6125 13.075C99.5328 13.2607 99.4538 13.4465 99.3748 13.6323C99.3287 13.7416 99.2816 13.8508 99.2346 13.96C99.1951 14.0528 99.1556 14.1456 99.1153 14.2411C99.0221 14.4459 99.0221 14.4459 98.9381 14.5299C98.6895 14.5374 98.4434 14.5396 98.1948 14.5381C98.0831 14.538 98.0831 14.538 97.9697 14.5377C97.7304 14.5373 97.4918 14.5362 97.2533 14.5351C97.0912 14.5347 96.93 14.5343 96.7687 14.534C96.3723 14.5331 95.975 14.5317 95.5786 14.5299C95.508 13.8059 95.4786 13.0871 95.4694 12.36C95.4677 12.2473 95.4661 12.1346 95.4644 12.0218C95.4602 11.7187 95.456 11.4155 95.4518 11.1123C95.4476 10.7925 95.4434 10.4727 95.4383 10.1529C95.4308 9.61576 95.4241 9.07849 95.4165 8.54122C95.4073 7.85619 95.398 7.17114 95.3879 6.4861C95.3795 5.89204 95.3712 5.29799 95.3628 4.70392C95.3602 4.51555 95.3577 4.32717 95.3552 4.13879C95.3376 2.87112 95.3224 1.60376 95.3266 0.335938Z"
          fill="#00591B"
        />
        <path
          d="M108.143 3.51399C109.317 3.47761 110.473 3.66583 111.358 4.4828C111.902 5.0716 111.947 5.6884 111.956 6.46702C111.918 6.84599 111.842 7.213 111.762 7.5851C111.74 7.69311 111.718 7.80112 111.695 7.91241C111.616 8.29894 111.535 8.68476 111.452 9.07068C111.324 9.678 111.195 10.2855 111.068 10.8931C111.013 11.1538 110.957 11.4144 110.9 11.6751C110.697 12.6261 110.541 13.5619 110.444 14.5299C109.668 14.5299 108.892 14.5299 108.093 14.5299C108.065 14.3636 108.037 14.1973 108.009 14.026C107.974 14.0594 107.937 14.0928 107.901 14.1273C107.299 14.6709 106.688 14.8971 105.875 14.8835C105.151 14.8246 104.486 14.6493 103.977 14.11C103.315 13.2538 103.224 12.3224 103.329 11.272C103.455 10.4211 103.792 9.68791 104.481 9.15467C105.123 8.7181 105.828 8.50175 106.563 8.28551C108.103 7.90561 108.103 7.90561 109.238 6.89745C109.392 6.52434 109.379 6.26679 109.269 5.8791C109.051 5.62952 108.892 5.55584 108.576 5.46441C108.086 5.45625 107.68 5.55966 107.306 5.88435C107.112 6.21393 107.112 6.21393 106.917 6.97094C106.085 6.97094 105.254 6.97094 104.397 6.97094C104.631 5.88143 104.841 4.9057 105.762 4.22822C106.507 3.7529 107.27 3.56779 108.143 3.51399ZM106.468 10.693C106.112 11.0536 105.836 11.3988 105.825 11.9263C105.87 12.2726 105.937 12.527 106.156 12.8029C106.486 13.0534 106.852 13.0729 107.253 13.0181C107.933 12.6648 108.203 12.1239 108.429 11.4223C108.497 11.1785 108.558 10.9335 108.618 10.6874C108.633 10.6269 108.647 10.5663 108.662 10.5039C108.741 10.1594 108.781 9.84656 108.765 9.49062C108.09 9.49062 106.96 10.2697 106.468 10.693Z"
          fill="#00591B"
        />
        <path
          d="M65.0302 4.40427C65.4627 4.79744 65.6431 5.26257 65.6987 5.8296C65.7327 6.8067 65.4944 7.73831 65.2904 8.68799C65.2516 8.87252 65.213 9.05712 65.1745 9.24173C65.0983 9.60607 65.0217 9.97032 64.9446 10.3344C64.8077 10.9817 64.6754 11.6298 64.545 12.2785C64.5161 12.4199 64.5161 12.4199 64.4864 12.5642C64.3548 13.2168 64.2569 13.8707 64.1671 14.5304C63.3911 14.5304 62.615 14.5304 61.8154 14.5304C61.8154 14.3641 61.8154 14.1978 61.8154 14.0264C61.7716 14.066 61.7278 14.1055 61.6826 14.1462C61.0522 14.6794 60.3934 14.9202 59.5632 14.8847C58.8026 14.8085 58.2149 14.576 57.679 14.0159C57.0137 13.1598 57.0121 12.1243 57.1121 11.0869C57.2554 10.2969 57.6113 9.65134 58.2499 9.15782C59.0184 8.6455 59.829 8.37922 60.7183 8.1578C61.6136 7.92304 62.4474 7.68521 62.9913 6.88749C63.1247 6.62061 63.0984 6.33872 63.0753 6.04761C62.977 5.76033 62.9179 5.71876 62.6553 5.54368C62.1825 5.44911 61.8518 5.43824 61.3955 5.62767C60.883 5.99711 60.8808 6.30804 60.6396 6.97147C59.8358 6.97147 59.0321 6.97147 58.204 6.97147C58.318 5.8306 58.596 5.05519 59.4638 4.28386C61.0354 3.15668 63.5226 3.20828 65.0302 4.40427ZM60.0517 10.8349C59.7561 11.1618 59.6098 11.4522 59.5898 11.8952C59.6114 12.2346 59.6879 12.483 59.8837 12.7666C60.1689 13.011 60.4277 13.0649 60.8033 13.0471C61.2357 12.9755 61.5336 12.762 61.7839 12.415C62.2744 11.5472 62.4574 10.4685 62.5713 9.49109C61.7773 9.49109 60.6065 10.3278 60.0517 10.8349Z"
          fill="#00591B"
        />
        <path
          d="M127.137 3.58049C127.229 3.57844 127.323 3.57639 127.418 3.57426C128.312 3.57111 129.138 3.73919 129.794 4.38068C130.468 5.15056 130.498 6.10639 130.452 7.08478C130.302 8.91469 130.302 8.91469 130.014 9.49119C128.351 9.49119 126.688 9.49119 124.974 9.49119C124.947 9.79606 124.919 10.1009 124.89 10.4151C124.875 10.5033 124.86 10.5917 124.845 10.6827C124.795 10.9855 124.785 11.2849 124.78 11.5909C124.776 11.6772 124.776 11.6772 124.773 11.7654C124.768 12.1965 124.861 12.4418 125.142 12.7667C125.439 12.9277 125.753 12.9574 126.085 12.9055C126.519 12.7701 126.678 12.5799 126.906 12.1788C126.985 11.9615 127.042 11.7422 127.095 11.5174C127.144 11.3199 127.192 11.1224 127.242 10.919C128.018 10.919 128.794 10.919 129.594 10.919C129.594 12.0984 129.284 13.1285 128.481 14.0107C127.72 14.7216 126.753 14.8994 125.746 14.8926C125.635 14.8919 125.635 14.8919 125.524 14.8912C124.605 14.8741 123.771 14.7038 123.043 14.1105C122.298 13.3038 122.229 12.2872 122.257 11.2417C122.362 9.05966 122.671 5.94879 124.381 4.37313C125.218 3.69905 126.088 3.5817 127.137 3.58049ZM125.954 5.92035C125.551 6.47084 125.457 7.15966 125.31 7.81138C126.142 7.81138 126.973 7.81138 127.83 7.81138C127.947 7.34394 128.022 7.03653 128.024 6.57781C128.026 6.48742 128.027 6.39701 128.028 6.30387C127.994 6.01184 127.926 5.85923 127.746 5.6277C127.152 5.22121 126.406 5.41618 125.954 5.92035Z"
          fill="#00591B"
        />
        <path
          d="M43.9837 3.57488C44.0725 3.57401 44.1613 3.57316 44.2528 3.57227C45.1432 3.58223 45.9317 3.76918 46.6136 4.36751C47.1746 5.04063 47.2319 5.75887 47.233 6.60369C47.235 6.6864 47.2371 6.76911 47.2392 6.85434C47.2428 7.78616 47.0487 8.52938 46.8656 9.49079C45.2026 9.49079 43.5397 9.49079 41.8263 9.49079C41.4688 11.0997 41.4688 11.0997 41.8263 12.6823C42.1626 12.9176 42.4915 12.9617 42.8919 12.8975C43.2008 12.8092 43.3998 12.6865 43.5907 12.4166C43.8519 11.9332 43.9324 11.462 44.01 10.9186C44.8138 10.9186 45.6175 10.9186 46.4456 10.9186C46.3382 12.1002 46.1298 13.1674 45.2612 14.0343C44.2071 14.9115 42.967 14.938 41.6583 14.866C40.8261 14.7612 40.1457 14.4477 39.6111 13.7899C38.5768 12.2887 39.1444 10.0565 39.4428 8.41104C39.7232 6.93276 40.0578 5.18208 41.3591 4.23628C42.2106 3.67432 42.9846 3.58239 43.9837 3.57488ZM42.7502 5.8793C42.4034 6.47113 42.1623 7.12134 42.1623 7.81102C42.9937 7.81102 43.8252 7.81102 44.6819 7.81102C44.9146 6.71133 44.9146 6.71133 44.6031 5.71132C44.344 5.46008 44.1801 5.44055 43.8262 5.42786C43.3539 5.43588 43.0564 5.50831 42.7502 5.8793Z"
          fill="#00591B"
        />
        <path
          d="M87.3847 4.17352C87.9928 4.68667 88.3321 5.34888 88.4396 6.13148C88.6429 8.56749 88.065 11.8114 86.5658 13.8006C86.0653 14.3006 85.5118 14.6088 84.8281 14.7823C84.7668 14.7977 84.7064 14.8132 84.6434 14.8291C83.5482 15.0017 82.2182 14.9741 81.2846 14.32C80.5636 13.7236 80.2507 13.0146 80.1248 12.0946C79.9415 9.82361 80.5245 6.54507 81.9348 4.7014C83.2067 3.31414 85.8452 3.14272 87.3847 4.17352ZM84.0722 5.71155C83.7313 6.13205 83.5511 6.51093 83.4055 7.02911C83.3851 7.09971 83.3645 7.17032 83.3434 7.24307C82.9493 8.64358 82.5505 10.1397 82.5395 11.6012C82.5377 11.6591 82.536 11.717 82.5342 11.7767C82.5307 12.2363 82.6383 12.502 82.9541 12.8295C83.36 13.0489 83.7 13.0531 84.1302 12.9292C84.8642 12.4998 85.0406 11.776 85.2481 11.0028C85.3556 10.5821 85.458 10.1603 85.558 9.73769C85.5832 9.63245 85.6075 9.52713 85.6336 9.41862C86.1232 7.58095 86.1232 7.58095 85.752 5.79553C85.4841 5.5442 85.254 5.46635 84.8861 5.43858C84.5367 5.46226 84.362 5.51626 84.0722 5.71155Z"
          fill="#00591B"
        />
        <path
          d="M17.9738 4.21502C18.5731 4.73207 18.8619 5.44354 18.9817 6.21499C19.1562 8.64133 18.6202 11.8539 17.0692 13.7916C16.4244 14.4982 15.5032 14.8485 14.5556 14.894C13.4315 14.9143 12.2869 14.8376 11.4227 14.0259C10.6396 13.0465 10.5621 11.8704 10.6669 10.6664C11.2764 5.64187 11.2764 5.64187 13.0165 4.22847C14.3872 3.31558 16.6118 3.26116 17.9738 4.21502ZM14.444 5.90298C13.435 7.29157 12.8645 10.3404 13.0395 12.0469C13.1133 12.405 13.2257 12.6357 13.5224 12.85C13.9252 13.0423 14.2753 13.0594 14.6983 12.934C15.3818 12.5453 15.5449 11.7862 15.7485 11.0729C16.6051 8.41826 16.6051 8.41826 16.294 5.79505C16.0304 5.53966 15.7944 5.46575 15.4279 5.4381C14.9971 5.4673 14.7322 5.57815 14.444 5.90298Z"
          fill="#00591B"
        />
        <path
          d="M55.7086 3.76434C56.1401 4.06182 56.4432 4.46084 56.6082 4.95526C56.7272 6.0524 56.4769 7.10166 56.2437 8.16681C56.2062 8.34315 56.1687 8.51952 56.1313 8.6959C56.0336 9.15598 55.9342 9.61573 55.8344 10.0753C55.7329 10.5451 55.633 11.0151 55.5329 11.4851C55.3869 12.1697 55.2404 12.8541 55.0922 13.5382C55.0768 13.6098 55.0614 13.6814 55.0455 13.7552C54.9884 14.0182 54.9296 14.2743 54.8445 14.5299C54.013 14.5299 53.1815 14.5299 52.3248 14.5299C52.3794 13.9848 52.4406 13.4792 52.5585 12.95C52.5734 12.8813 52.5882 12.8126 52.6036 12.7418C52.6356 12.5944 52.6678 12.447 52.7003 12.2996C52.7516 12.0659 52.8022 11.8321 52.8526 11.5982C52.9959 10.9338 53.1402 10.2696 53.2857 9.60565C53.3749 9.19814 53.463 8.7903 53.5506 8.38239C53.584 8.22768 53.6178 8.07305 53.6521 7.91851C53.7 7.70232 53.7465 7.48586 53.7927 7.26932C53.8142 7.17479 53.8142 7.17479 53.836 7.07835C53.9251 6.65155 53.9213 6.30846 53.8366 5.87913C53.7009 5.61851 53.7009 5.61851 53.5046 5.57533C53.0644 5.52592 52.7868 5.53143 52.4088 5.79514C51.6543 6.48312 51.5716 7.94021 51.3764 8.89839C51.3432 9.05872 51.31 9.21906 51.2768 9.37931C51.19 9.79799 51.1038 10.2167 51.018 10.6355C50.8797 11.309 50.7408 11.9824 50.6012 12.6557C50.5527 12.8907 50.5047 13.1258 50.4565 13.361C50.4271 13.5038 50.3976 13.6466 50.3681 13.7893C50.3548 13.8549 50.3416 13.9206 50.3278 13.9882C50.2347 14.4364 50.2347 14.4364 50.1412 14.5299C49.9548 14.5373 49.7683 14.5389 49.5818 14.5381C49.4981 14.5379 49.4981 14.5379 49.4126 14.5378C49.2338 14.5373 49.0549 14.5362 48.8761 14.5352C48.7551 14.5347 48.6341 14.5343 48.5131 14.534C48.2159 14.5331 47.9187 14.5316 47.6215 14.5299C47.6816 13.9685 47.7896 13.4238 47.9078 12.8719C47.9282 12.7752 47.9487 12.6784 47.9699 12.5787C48.0373 12.2606 48.1052 11.9425 48.173 11.6244C48.22 11.4032 48.267 11.1819 48.3139 10.9607C48.4246 10.439 48.5356 9.91725 48.6468 9.3956C48.7732 8.8013 48.8996 8.20698 49.0257 7.61264C49.2852 6.39082 49.5451 5.16909 49.8052 3.9474C50.609 3.9474 51.4127 3.9474 52.2409 3.9474C52.2131 4.14142 52.1854 4.33543 52.1569 4.53532C52.2068 4.49678 52.2567 4.45824 52.3081 4.41853C53.2644 3.71062 54.5382 3.22765 55.7086 3.76434Z"
          fill="#00591B"
        />
        <path
          d="M59.9677 23.0967C60.5775 23.0967 61.1872 23.0967 61.8155 23.0967C61.8002 23.3659 61.785 23.6352 61.7692 23.9126C61.6116 26.7821 61.5081 29.6519 61.4218 32.5243C61.419 32.6175 61.4162 32.7105 61.4133 32.8064C61.3786 33.9652 61.3447 35.124 61.3115 36.2828C60.4801 36.2412 60.4801 36.2412 59.6318 36.1988C59.6318 35.6445 59.6318 35.0902 59.6318 34.519C59.5382 34.6594 59.4447 34.7996 59.3483 34.9442C58.7141 35.8115 57.8342 36.2834 56.7762 36.4508C55.4993 36.5282 54.296 36.325 53.2684 35.5108C52.3169 34.6233 51.9767 33.5472 51.8813 32.2714C51.843 30.7439 52.2625 29.1756 53.27 27.9988C54.3791 26.836 55.806 26.3132 57.3973 26.2669C57.591 26.2643 57.7846 26.2627 57.9783 26.262C58.0705 26.2615 58.1626 26.2611 58.2575 26.2606C58.8397 26.2657 59.2916 26.3378 59.8838 26.4562C59.9115 25.3476 59.9392 24.2389 59.9677 23.0967ZM54.6092 28.901C53.749 30.0284 53.5854 31.3032 53.6686 32.6713C53.8151 33.6137 54.3419 34.2958 55.0964 34.855C55.6852 35.2454 56.5183 35.1779 57.1961 35.107C57.9704 34.94 58.5314 34.4569 58.9809 33.8209C59.8787 32.3765 59.8012 30.6313 59.847 28.9863C59.8507 28.8622 59.8544 28.7381 59.858 28.6139C59.8669 28.3147 59.8754 28.0153 59.8838 27.716C59.6844 27.6743 59.4849 27.633 59.2853 27.592C59.2295 27.5802 59.1736 27.5685 59.1161 27.5564C57.5105 27.2288 55.7006 27.6226 54.6092 28.901Z"
          fill="#00591B"
        />
        <path
          d="M76.0829 3.58515C76.161 3.5838 76.2391 3.58245 76.3195 3.58106C77.1844 3.58045 77.9536 3.78992 78.6131 4.36729C79.2814 5.11591 79.3994 5.97627 79.386 6.94894C79.369 7.22288 79.369 7.22288 79.285 7.72681C78.4812 7.72681 77.6774 7.72681 76.8493 7.72681C76.8651 6.99716 76.8651 6.99716 76.872 6.76958C76.8762 6.37305 76.8526 6.11831 76.5974 5.79509C76.3898 5.58754 76.22 5.56919 75.9334 5.54116C75.6486 5.54434 75.484 5.63273 75.2536 5.79509C74.949 6.18821 74.8061 6.57406 74.6709 7.04441C74.6497 7.11681 74.6285 7.18921 74.6067 7.26381C73.7678 9.92343 73.7678 9.92343 74.0242 12.5788C74.1512 12.7895 74.1512 12.7895 74.4137 12.8501C74.8337 12.8811 75.0945 12.8736 75.4215 12.5981C75.9428 11.9653 76.0644 11.2056 76.1774 10.4144C77.0089 10.4144 77.8404 10.4144 78.6971 10.4144C78.5521 11.8645 78.2381 13.1994 77.1013 14.1939C76.0168 14.8928 74.8004 15.0167 73.5423 14.8081C72.7275 14.6084 72.1156 14.222 71.6421 13.522C70.6962 11.5284 71.5338 8.564 72.1615 6.57132C72.5813 5.40671 73.166 4.40159 74.3116 3.84565C74.9107 3.63221 75.4512 3.58298 76.0829 3.58515Z"
          fill="#00591B"
        />
        <path
          d="M38.6348 0.235835C38.7573 0.235916 38.7573 0.235916 38.8821 0.235998C39.2844 0.238465 39.6672 0.25208 40.0626 0.33557C39.9999 0.962095 39.8638 1.56931 39.7266 2.1833C39.6699 2.18547 39.6132 2.18764 39.5547 2.18986C39.4798 2.19463 39.4049 2.1994 39.3277 2.2043C39.2536 2.2082 39.1796 2.2121 39.1033 2.21611C38.8162 2.28397 38.7256 2.36515 38.5508 2.60324C38.4659 2.82992 38.4128 3.0598 38.3618 3.29614C38.3473 3.35872 38.3329 3.4213 38.3179 3.48577C38.2825 3.63929 38.2485 3.79313 38.2149 3.94705C38.5752 3.94705 38.9355 3.94705 39.3067 3.94705C39.1958 4.50137 39.085 5.05569 38.9707 5.62681C38.4719 5.66838 38.4719 5.66838 37.9629 5.7108C37.94 5.81881 37.917 5.92681 37.8934 6.03808C37.6773 7.05406 37.461 8.06997 37.2445 9.08587C37.1332 9.60819 37.022 10.1305 36.9109 10.6529C36.8039 11.1567 36.6965 11.6603 36.5891 12.164C36.548 12.3566 36.5071 12.5491 36.4662 12.7417C36.4091 13.0106 36.3518 13.2796 36.2943 13.5484C36.2773 13.6287 36.2604 13.709 36.2429 13.7916C36.2272 13.8647 36.2116 13.9377 36.1954 14.0129C36.1818 14.0766 36.1683 14.1402 36.1544 14.2058C36.1152 14.3616 36.1152 14.3616 36.0312 14.5295C35.1997 14.5295 34.3682 14.5295 33.5115 14.5295C33.606 13.6792 33.606 13.6792 33.6688 13.3809C33.69 13.279 33.69 13.279 33.7117 13.1751C33.7269 13.1035 33.7422 13.0319 33.758 12.958C33.7742 12.8804 33.7905 12.8028 33.8072 12.7227C33.8605 12.4685 33.9143 12.2144 33.9683 11.9604C34.0056 11.783 34.0429 11.6055 34.0802 11.4281C34.1582 11.0577 34.2365 10.6873 34.3149 10.3169C34.4156 9.84151 34.5157 9.36597 34.6157 8.89034C34.6926 8.52466 34.7698 8.15904 34.8469 7.79341C34.884 7.61799 34.9209 7.44254 34.9579 7.26709C35.0093 7.02277 35.061 6.77853 35.1129 6.53429C35.1281 6.46147 35.1434 6.38866 35.1591 6.31364C35.2657 5.814 35.2657 5.814 35.3593 5.62681C35.0267 5.62681 34.6941 5.62681 34.3514 5.62681C34.4623 5.07249 34.5731 4.51817 34.6874 3.94705C35.1863 3.90548 35.1863 3.90548 35.6952 3.86306C35.7267 3.71517 35.7582 3.56728 35.7907 3.41491C35.8341 3.21783 35.8775 3.02076 35.921 2.82371C35.9415 2.7266 35.962 2.62948 35.9831 2.52943C36.1564 1.75285 36.3444 0.956787 37.044 0.498297C37.5797 0.239585 38.0502 0.228469 38.6348 0.235835Z"
          fill="#00591B"
        />
        <path
          d="M81.0487 26.9599C81.5856 27.4409 81.7762 27.9035 81.8269 28.618C81.8276 28.7337 81.8271 28.8494 81.8256 28.9651C81.8252 29.0321 81.8247 29.0992 81.8243 29.1682C81.8126 29.9707 81.7588 30.7714 81.7086 31.5721C81.6443 32.5994 81.5914 33.6271 81.5421 34.6553C81.5384 34.7327 81.5348 34.8101 81.5309 34.8899C81.51 35.3262 81.4892 35.7623 81.4687 36.1985C80.8866 36.1985 80.3046 36.1985 79.7049 36.1985C79.7442 35.3857 79.7854 34.573 79.8319 33.7606C79.8375 33.6609 79.8375 33.6609 79.8433 33.5592C79.8744 33.0137 79.8744 33.0137 79.8898 32.7489C79.9487 31.7449 79.9487 31.7449 79.9569 30.7393C79.9128 30.7672 79.8686 30.7951 79.8232 30.8238C79.2742 31.1637 78.6819 31.332 78.0687 31.5155C77.6505 31.6414 77.2338 31.7716 76.8178 31.9047C76.734 31.9301 76.6502 31.9556 76.5638 31.9818C75.8239 32.2207 75.1224 32.5446 74.7496 33.259C74.6215 33.7107 74.6431 34.1137 74.8336 34.5424C75.0614 34.9338 75.4371 35.1028 75.8549 35.2294C76.6845 35.3869 77.5042 35.297 78.3129 35.0778C78.5291 35.0227 78.5291 35.0227 78.781 35.0227C78.7549 35.1697 78.7286 35.3167 78.7023 35.4636C78.6877 35.5455 78.6731 35.6273 78.658 35.7117C78.6211 35.9043 78.5792 36.093 78.5291 36.2825C77.0411 36.5626 75.1427 36.7487 73.8258 35.8626C73.2887 35.3903 73.0195 34.8983 72.9566 34.1884C72.9167 33.3488 72.9982 32.7318 73.5577 32.072C74.5186 31.1166 75.9201 30.8235 77.1853 30.4874C77.5023 30.403 77.819 30.3169 78.1354 30.2302C78.2071 30.2115 78.2786 30.193 78.3524 30.1738C78.9362 30.0135 79.4243 29.7847 79.8309 29.3273C79.9984 28.9715 80.0004 28.7793 79.9569 28.3877C79.7964 27.9563 79.4356 27.7394 79.033 27.5478C77.5125 27.1098 75.6796 27.5977 74.2457 28.1357C74.2576 27.9747 74.27 27.8137 74.2825 27.6528C74.2893 27.5632 74.2961 27.4735 74.3031 27.3811C74.3247 27.1751 74.3564 26.9902 74.4137 26.7919C76.3381 26.2366 79.3167 25.6334 81.0487 26.9599Z"
          fill="#00591B"
        />
        <path
          d="M69.3743 26.8603C69.4887 26.9465 69.6009 27.0357 69.7103 27.128C69.7635 27.172 69.8169 27.2161 69.8717 27.2616C70.557 27.8838 70.918 28.8133 70.9815 29.7286C71.0195 30.7247 71.0195 30.7247 70.8861 30.9915C68.5025 30.9915 66.119 30.9915 63.6632 30.9915C63.6632 32.1427 63.7031 33.3043 64.5037 34.2047C65.2616 34.9204 66.0974 35.1664 67.1283 35.1997C68.1574 35.1686 69.1422 34.8719 70.1302 34.603C70.1066 34.8235 70.082 35.0439 70.0567 35.2644C70.0501 35.327 70.0436 35.3897 70.0368 35.4543C69.9813 35.9277 69.9813 35.9277 69.7943 36.1147C69.6123 36.1652 69.4281 36.2078 69.2431 36.2459C69.1443 36.2668 69.0454 36.2878 68.9436 36.3093C67.1458 36.6267 65.1562 36.6299 63.5792 35.6108C62.5942 34.8543 62.121 33.7828 61.8994 32.5873C61.8656 32.2416 61.8593 31.9003 61.8627 31.5531C61.8634 31.4615 61.8641 31.3698 61.8648 31.2753C61.8927 29.9339 62.2959 28.519 63.2485 27.526C64.814 26.1214 67.5376 25.7128 69.3743 26.8603ZM64.671 28.2199C64.6256 28.262 64.5801 28.3041 64.5332 28.3475C64.111 28.7857 63.7471 29.4521 63.7471 30.0676C65.5764 30.0676 67.4057 30.0676 69.2904 30.0676C69.2904 29.2964 69.2033 28.7966 68.8074 28.1464C68.1913 27.5644 67.5091 27.333 66.668 27.3537C65.9063 27.4395 65.2294 27.691 64.671 28.2199Z"
          fill="#00591B"
        />
        <path
          d="M69.0385 0.335938C69.8977 0.335938 70.7568 0.335938 71.6421 0.335938C71.4531 1.46982 71.4531 1.46982 71.3568 1.9243C71.335 2.02752 71.3132 2.13075 71.2908 2.2371C71.2672 2.3478 71.2436 2.45849 71.22 2.56918C71.1948 2.68864 71.1695 2.8081 71.1442 2.92756C71.0763 3.24897 71.008 3.57032 70.9396 3.89166C70.8823 4.16108 70.8252 4.43054 70.7681 4.69999C70.6332 5.33606 70.4982 5.97208 70.3629 6.60807C70.2239 7.2619 70.0852 7.9158 69.9467 8.56978C69.8273 9.13359 69.7076 9.6974 69.5878 10.2611C69.5165 10.5968 69.4452 10.9325 69.3742 11.2682C69.3073 11.5839 69.2402 11.8996 69.1729 12.2153C69.1484 12.3303 69.124 12.4455 69.0997 12.5606C69.0663 12.7192 69.0323 12.8777 68.9985 13.0362C68.9797 13.1244 68.961 13.2127 68.9417 13.3037C68.8448 13.7151 68.7297 14.122 68.6185 14.5299C67.787 14.5299 66.9556 14.5299 66.0989 14.5299C66.1499 14.0706 66.1991 13.6525 66.2939 13.2067C66.3276 13.0468 66.3276 13.0468 66.362 12.8836C66.3868 12.7677 66.4116 12.6518 66.4364 12.536C66.4627 12.4121 66.4889 12.2883 66.5151 12.1645C66.5859 11.83 66.6572 11.4957 66.7285 11.1614C66.8034 10.8103 66.8778 10.4593 66.9523 10.1082C67.0773 9.51876 67.2027 8.92941 67.3282 8.34009C67.5049 7.51071 67.6811 6.68123 67.8572 5.85173C68.0936 4.73874 68.3301 3.62576 68.567 2.5129C68.5926 2.39295 68.6181 2.273 68.6436 2.15305C68.6787 1.98839 68.7138 1.82375 68.7488 1.65911C68.7684 1.56726 68.7879 1.47542 68.8081 1.38079C68.8833 1.03218 68.9611 0.684095 69.0385 0.335938Z"
          fill="#00591B"
        />
        <path
          d="M115.316 0.335938C116.147 0.335938 116.979 0.335938 117.835 0.335938C117.74 1.28081 117.74 1.28081 117.667 1.62989C117.65 1.70946 117.633 1.78902 117.616 1.871C117.598 1.95524 117.58 2.03948 117.561 2.12628C117.541 2.21754 117.523 2.30879 117.503 2.4028C117.439 2.70354 117.375 3.00412 117.31 3.30472C117.265 3.51745 117.22 3.7302 117.175 3.94296C117.08 4.39012 116.985 4.83723 116.89 5.28427C116.758 5.90159 116.627 6.51904 116.496 7.13651C115.972 9.60308 115.441 12.068 114.896 14.5299C114.037 14.5299 113.177 14.5299 112.292 14.5299C112.597 12.9885 112.915 11.4503 113.241 9.91316C113.294 9.66246 113.347 9.41167 113.4 9.16097C113.525 8.56994 113.65 7.97901 113.775 7.38805C113.904 6.78078 114.032 6.17347 114.16 5.56612C114.271 5.0405 114.383 4.51492 114.493 3.98936C114.56 3.67718 114.626 3.36499 114.692 3.05276C114.753 2.76054 114.815 2.46837 114.877 2.17623C114.911 2.01881 114.944 1.86135 114.977 1.70388C115.008 1.562 115.007 1.562 115.038 1.41725C115.055 1.33566 115.072 1.25408 115.09 1.17003C115.156 0.889569 115.237 0.612868 115.316 0.335938Z"
          fill="#00591B"
        />
        <path
          d="M120.019 0.335938C120.878 0.335938 121.737 0.335938 122.623 0.335938C122.313 1.90398 121.987 3.46827 121.654 5.03154C121.599 5.29065 121.544 5.54978 121.489 5.80891C121.359 6.41922 121.229 7.02951 121.099 7.63977C120.966 8.26804 120.832 8.89632 120.699 9.52472C120.583 10.0677 120.468 10.6107 120.352 11.1537C120.283 11.4765 120.215 11.7994 120.146 12.1223C120.082 12.4241 120.017 12.726 119.953 13.0278C119.918 13.1913 119.884 13.3548 119.849 13.5183C119.828 13.6153 119.807 13.7123 119.786 13.8122C119.768 13.8965 119.75 13.9809 119.732 14.0679C119.683 14.2779 119.683 14.2779 119.599 14.5299C118.768 14.5299 117.936 14.5299 117.08 14.5299C117.13 14.0271 117.175 13.5787 117.279 13.0933C117.295 13.0122 117.295 13.0122 117.313 12.9295C117.35 12.7516 117.388 12.5737 117.426 12.3959C117.453 12.2672 117.48 12.1383 117.508 12.0095C117.581 11.6621 117.655 11.3148 117.729 10.9675C117.806 10.6034 117.883 10.2391 117.961 9.87495C118.09 9.2641 118.219 8.65335 118.349 8.04267C118.517 7.25853 118.682 6.47428 118.848 5.68999C118.991 5.01521 119.135 4.34047 119.277 3.66576C119.324 3.44895 119.37 3.23214 119.415 3.01533C119.487 2.67523 119.56 2.33516 119.632 1.99512C119.659 1.87023 119.686 1.74533 119.712 1.62042C119.748 1.45023 119.784 1.28009 119.82 1.10995C119.84 1.01466 119.861 0.91936 119.881 0.821179C119.935 0.587901 119.935 0.587901 120.019 0.335938Z"
          fill="#00591B"
        />
        <path
          d="M37.9629 29.3958C38.3548 29.6197 38.6322 29.8935 38.913 30.2409C38.973 30.3133 38.973 30.3133 39.0343 30.3872C39.2172 30.6086 39.3975 30.832 39.577 31.0561C39.9939 31.5748 40.4335 32.0645 40.8911 32.5472C41.1342 32.8039 41.3724 33.0629 41.6032 33.3307C42.627 34.5075 43.7518 35.5436 45.0179 36.4508C45.2913 36.6496 45.5641 36.8492 45.8367 37.0492C45.9038 37.0983 45.9709 37.1474 46.0399 37.1981C48.3357 38.8914 48.3357 38.8914 48.5454 39.8943C48.6036 40.376 48.5694 40.74 48.2934 41.1541C48.0528 41.4225 47.7751 41.4731 47.4276 41.5005C45.5696 41.4142 44.0936 39.5519 42.9169 38.284C42.7749 38.1228 42.6366 37.9589 42.4982 37.7946C42.4229 37.7076 42.3474 37.6208 42.2719 37.534C41.7256 36.9053 41.2014 36.263 40.6918 35.6043C40.5572 35.4309 40.4215 35.2584 40.2856 35.0859C36.9954 30.9 36.9954 30.9 37.123 29.8157C37.2843 29.3777 37.5156 29.3528 37.9629 29.3958Z"
          fill="#CDD409"
        />
        <path
          d="M36.871 31.4956C37.3238 31.7496 37.606 32.0787 37.9261 32.4825C37.9771 32.5455 38.028 32.6086 38.0805 32.6735C38.1861 32.8045 38.2915 32.9356 38.3966 33.0669C38.5856 33.3028 38.7765 33.5371 38.9674 33.7714C39.2381 34.1035 39.5076 34.4366 39.7774 34.7695C40.0496 35.1051 40.3222 35.4403 40.5951 35.7754C40.7364 35.9494 40.8768 36.124 41.0173 36.2987C41.8644 37.3476 42.7674 38.3289 43.7318 39.2711C43.9684 39.5023 44.2042 39.7343 44.44 39.9662C44.6159 40.1382 44.7932 40.3086 44.9706 40.4791C46.1668 41.6434 46.1668 41.6434 46.204 42.4765C46.1954 42.8363 46.1341 43.1 45.9102 43.3852C45.607 43.6667 45.3631 43.7051 44.9535 43.6962C43.6383 43.5398 42.6948 42.0793 41.9313 41.1165C41.8178 40.9723 41.7048 40.8278 41.5922 40.6829C41.3 40.3066 40.9999 39.9373 40.6977 39.5689C40.2932 39.0744 39.9034 38.5711 39.5239 38.0572C39.3064 37.7635 39.0855 37.4742 38.8556 37.1901C38.0689 36.2139 37.4149 35.1835 36.787 34.0992C36.7463 34.029 36.7057 33.9589 36.6637 33.8866C35.9362 32.6263 35.9362 32.6263 35.9262 32.1255C35.924 32.0606 35.9218 31.9956 35.9196 31.9286C35.9539 31.7034 36.0233 31.6355 36.1991 31.4956C36.4496 31.3704 36.6022 31.4284 36.871 31.4956Z"
          fill="#CDD409"
        />
        <path
          d="M31.3855 21.3747C33.032 22.107 34.4272 23.2689 35.806 24.4083C35.9965 24.5648 36.1896 24.7178 36.3828 24.8707C36.7512 25.1643 37.1105 25.4676 37.4689 25.7732C37.7523 26.0144 38.0396 26.2497 38.3303 26.4822C41.1721 28.8013 41.1721 28.8013 41.3644 30.099C41.3128 30.3695 41.2896 30.4827 41.0704 30.6554C40.718 30.757 40.4316 30.7155 40.1068 30.5487C39.5369 30.1542 39.0436 29.6681 38.5427 29.1912C38.1628 28.8294 37.7751 28.4863 37.3641 28.1597C37.1829 28.0154 37.0043 27.8694 36.8268 27.7207C35.3744 26.5108 33.796 25.4886 32.2015 24.4784C32.1202 24.4267 32.0389 24.3751 31.9551 24.322C31.7976 24.2222 31.6399 24.1225 31.482 24.0231C29.7065 22.8995 29.7065 22.8995 29.5641 22.3563C29.5317 21.9532 29.6625 21.7377 29.9 21.4167C30.3683 21.1259 30.8858 21.1886 31.3855 21.3747Z"
          fill="#00591B"
        />
        <path
          d="M27.6639 25.7791C27.7216 25.8051 27.7793 25.8311 27.8386 25.8578C30.7298 27.1899 33.3563 29.1602 35.9472 30.9916C35.93 31.0413 35.9128 31.091 35.8951 31.1422C35.7189 31.6589 35.5994 32.1058 35.606 32.6556C35.6068 32.7376 35.6075 32.8195 35.6084 32.904C35.6093 32.9658 35.6103 33.0276 35.6113 33.0913C35.2496 32.9658 34.9567 32.7732 34.6454 32.5559C33.848 32.0128 33.0108 31.5435 32.1678 31.0756C32.0965 31.036 32.0252 30.9964 31.9518 30.9556C31.1927 30.5356 30.429 30.1246 29.6619 29.7193C27.5322 28.5941 27.5322 28.5941 26.7033 28.115C26.6425 28.08 26.5817 28.0449 26.519 28.0088C25.3665 27.3332 25.3665 27.3332 25.1968 26.7922C25.1811 26.4462 25.2439 26.1895 25.4068 25.8841C26.0942 25.2826 26.8887 25.4238 27.6639 25.7791Z"
          fill="#00591B"
        />
        <path
          d="M29.5057 23.3173C30.5658 23.8566 31.5312 24.5144 32.5037 25.1962C32.5651 25.2392 32.6266 25.2821 32.6899 25.3263C33.1053 25.6168 33.5188 25.9098 33.9315 26.2041C33.9942 26.2487 34.0569 26.2933 34.1215 26.3393C35.1813 27.0944 36.2297 27.8628 37.207 28.7237C37.1153 28.9565 37.022 29.1751 36.9025 29.3956C36.7044 29.8425 36.7677 30.3456 36.7871 30.8234C36.4978 30.7155 36.2462 30.5903 35.9868 30.4231C35.9143 30.3767 35.8419 30.3303 35.7672 30.2824C35.6897 30.2322 35.6122 30.1821 35.5325 30.1305C35.3658 30.0235 35.1992 29.9166 35.0325 29.8096C34.9473 29.7548 34.8621 29.7 34.7745 29.6436C34.377 29.3882 33.9784 29.1347 33.5797 28.8812C33.5032 28.8324 33.4266 28.7837 33.3478 28.7335C32.5916 28.2524 31.8339 27.7739 31.0759 27.2959C30.6162 27.006 30.1566 26.7158 29.6974 26.4253C29.4578 26.274 29.2177 26.123 28.9778 25.9721C28.8093 25.8657 28.6407 25.7593 28.4723 25.6529C28.3924 25.6028 28.3126 25.5528 28.2304 25.5012C28.156 25.4542 28.0816 25.4071 28.005 25.3586C27.9391 25.3171 27.8732 25.2755 27.8052 25.2328C27.5341 25.0437 27.4023 24.926 27.2964 24.6083C27.2131 23.8507 27.2131 23.8507 27.3814 23.5148C27.9083 22.8645 28.8159 23.0048 29.5057 23.3173Z"
          fill="#00591B"
        />
        <path
          d="M26.8533 29.2435C27.0011 29.2939 27.1488 29.3447 27.2965 29.3957C27.3653 29.4191 27.4341 29.4425 27.5051 29.4666C29.9192 30.2981 32.21 31.5456 34.3515 32.9232C34.2683 33.2558 34.1852 33.5884 34.0995 33.9311C33.5337 33.8793 33.0173 33.7398 32.4735 33.5793C31.7297 33.3655 30.9846 33.1716 30.2295 33.0019C30.1384 32.9814 30.0474 32.9609 29.9537 32.9398C29.584 32.8571 29.2142 32.7752 28.8442 32.6939C24.9716 31.8404 24.9716 31.8404 23.9579 30.8497C23.7953 30.4186 23.7705 30.0173 23.853 29.5637C24.4935 28.4155 25.8457 28.9117 26.8533 29.2435Z"
          fill="#FFCC00"
        />
        <path
          d="M35.3068 33.2959C36.0587 33.457 36.6633 34.6934 37.0653 35.2906C37.523 35.9644 37.9877 36.6318 38.4668 37.2905C38.5115 37.352 38.5563 37.4135 38.6023 37.4769C40.5326 40.153 40.5326 40.153 42.8657 42.4716C43.1809 42.7439 43.4364 43.0297 43.5901 43.4216C43.5953 43.7471 43.5953 43.7471 43.5061 44.0096C43.3093 44.1837 43.1589 44.1786 42.8972 44.2037C41.889 44.1198 41.2323 43.42 40.5173 42.7658C40.3355 42.6008 40.1502 42.4413 39.9628 42.2826C39.6875 42.0424 39.449 41.7853 39.2136 41.5063C39.1022 41.377 38.9872 41.2508 38.8697 41.1271C37.7813 39.979 36.937 38.6358 36.1152 37.2905C36.0756 37.2264 36.036 37.1624 35.9953 37.0964C35.4172 36.1585 34.8554 35.228 34.8344 34.0938C34.8322 34.0235 34.83 33.9532 34.8278 33.8808C34.871 33.5644 34.9908 33.3706 35.3068 33.2959Z"
          fill="#CDD409"
        />
        <path
          d="M36.8711 22.0051C36.9885 22.0983 36.9885 22.0983 37.1083 22.1934C38.4538 23.278 39.7793 24.4814 40.8185 25.8686C40.8725 25.9389 40.9265 26.0092 40.9822 26.0818C41.4621 26.7317 41.8423 27.3924 41.7424 28.2202C41.6532 28.4302 41.6532 28.4302 41.4904 28.5562C41.2047 28.6111 41.0093 28.6208 40.7542 28.4662C40.4937 28.2515 40.2719 28.0067 40.0535 27.7501C39.689 27.3311 39.3005 26.938 38.9078 26.5457C38.8332 26.4712 38.7586 26.3966 38.6818 26.3198C38.1834 25.8262 37.6777 25.374 37.1231 24.9447C36.9671 24.812 36.8114 24.679 36.6559 24.5458C35.999 23.9976 35.3014 23.5069 34.6034 23.013C34.5075 22.9449 34.5075 22.9449 34.4097 22.8755C34.2224 22.7427 34.035 22.6101 33.8475 22.4776C33.7883 22.4356 33.7291 22.3937 33.6681 22.3506C33.4166 22.1731 33.1644 21.9976 32.9085 21.8263C32.8339 21.7762 32.7591 21.726 32.6822 21.6744C32.62 21.6338 32.5579 21.5932 32.4939 21.5513C32.2044 21.3058 32.0929 21.0715 32.047 20.698C32.0838 20.4094 32.0838 20.4094 32.2308 20.2099C33.6012 19.2201 35.8438 21.1851 36.8711 22.0051Z"
          fill="#00591B"
        />
        <path
          d="M71.4741 23.0967C72.0561 23.0967 72.6382 23.0967 73.2378 23.0967C73.2452 24.0329 73.2168 24.9622 73.1702 25.8972C73.1632 26.0448 73.156 26.1926 73.149 26.3403C73.1341 26.6521 73.119 26.9638 73.1038 27.2756C73.0643 28.0867 73.0259 28.8976 72.9878 29.7088C72.9822 29.8293 72.9822 29.8293 72.9764 29.9524C72.8787 32.0339 72.8025 34.1161 72.7339 36.1988C72.1242 36.1988 71.5144 36.1988 70.8862 36.1988C70.9269 35.1276 70.9702 34.057 71.0276 32.9866C71.1614 30.474 71.2656 27.9631 71.3311 25.4478C71.3357 25.2728 71.3404 25.0978 71.3452 24.9228C71.3509 24.7087 71.3563 24.4947 71.3614 24.2807C71.364 24.1857 71.3665 24.0909 71.3691 23.9932C71.3722 23.8696 71.3722 23.8696 71.3753 23.7436C71.3901 23.5166 71.3901 23.5166 71.4741 23.0967Z"
          fill="#00591B"
        />
        <path
          d="M25.2033 32.4663C25.2694 32.4669 25.3355 32.4675 25.4037 32.4681C26.1884 32.4888 26.9344 32.659 27.6954 32.839C27.8465 32.8737 27.9978 32.9082 28.149 32.9426C29.7812 33.3179 31.4054 33.729 33.0023 34.2353C33.0719 34.2565 33.1416 34.2778 33.2132 34.2996C33.6621 34.4486 34.0453 34.6524 34.3514 35.0227C34.4091 35.3271 34.4091 35.3271 34.3514 35.6106C34.1946 35.8092 34.0725 35.9181 33.8475 36.0305C32.8552 36.0932 31.8749 35.9693 30.8921 35.8469C30.8149 35.8375 30.7377 35.828 30.6582 35.8183C28.9786 35.6123 27.3125 35.3678 25.6744 34.9335C25.6002 34.9139 25.5259 34.8943 25.4494 34.8741C24.8525 34.706 24.262 34.4936 23.9369 33.9308C23.8419 33.5712 23.8106 33.2832 23.9474 32.9335C24.3104 32.5221 24.6728 32.4591 25.2033 32.4663Z"
          fill="#FFCC00"
        />
        <path
          d="M26.1154 35.6577C26.2168 35.6586 26.2168 35.6586 26.3203 35.6596C28.8223 35.7228 31.2956 36.3177 33.6795 37.0383C33.72 37.2097 33.7601 37.3811 33.8003 37.5527C33.8226 37.6481 33.8451 37.7436 33.8682 37.842C33.926 38.1053 33.9738 38.3678 34.0155 38.634C26.2903 38.6998 26.2903 38.6998 24.9448 37.7942C24.6639 37.4993 24.5859 37.2675 24.5668 36.8703C24.5846 36.4758 24.6707 36.2421 24.9448 35.9464C25.3339 35.7068 25.6669 35.6515 26.1154 35.6577Z"
          fill="#FFCC00"
        />
        <path
          d="M48.3774 24.7764C48.6238 24.9274 48.753 25.0237 48.8813 25.2804C48.9531 25.7097 48.9137 26.0426 48.6819 26.4142C48.0946 27.2008 47.2684 27.7642 46.492 28.3499C46.2393 28.5406 45.989 28.7338 45.7406 28.9299C41.9821 31.8977 41.9821 31.8977 41.018 31.9207C40.717 31.786 40.5898 31.5953 40.3986 31.3275C40.3986 31.2721 40.3986 31.2166 40.3986 31.1595C40.4483 31.1554 40.4979 31.1513 40.5491 31.1471C41.0842 31.1057 41.0842 31.1057 41.5744 30.9076C41.8143 30.542 41.7839 30.0698 41.7424 29.6477C41.69 29.4508 41.6347 29.2545 41.5744 29.0598C41.6326 29.0248 41.6909 28.9899 41.7509 28.9538C43.3986 27.9605 44.9707 26.9563 46.3617 25.6163C46.9827 25.0384 47.4863 24.6383 48.3774 24.7764Z"
          fill="#EE7F00"
        />
        <path
          d="M48.7134 27.7157C48.8918 27.8503 48.9564 27.9268 49.0047 28.1465C49.0162 29.0411 48.6107 29.6347 48.009 30.2679C44.297 33.9799 44.297 33.9799 42.808 34.0201C42.2668 33.8061 41.8674 33.2403 41.5744 32.755C41.5924 32.5481 41.6241 32.4524 41.7737 32.3071C41.8229 32.2741 41.8721 32.2411 41.9228 32.2071C41.9787 32.1688 42.0347 32.1305 42.0924 32.091C42.1535 32.0503 42.2147 32.0096 42.2778 31.9676C42.4086 31.878 42.5393 31.7882 42.6699 31.6983C42.7382 31.6515 42.8066 31.6046 42.877 31.5563C44.3139 30.5594 45.693 29.4741 47.0293 28.3466C47.1105 28.2788 47.1915 28.2109 47.2751 28.141C47.3476 28.0796 47.4201 28.0182 47.4949 27.9549C47.9151 27.6453 48.2027 27.5929 48.7134 27.7157Z"
          fill="#EE7F00"
        />
        <path
          d="M46.7134 21.9789C47.0255 22.2356 47.1789 22.4455 47.2409 22.8493C47.2469 23.4757 47.1993 23.8806 46.7816 24.3568C46.7367 24.4088 46.6917 24.4607 46.6455 24.5142C46.1818 25.0089 45.6379 25.4139 45.1009 25.8247C44.9274 25.9575 44.7546 26.0911 44.5819 26.2248C44.0069 26.6688 43.4282 27.1072 42.8394 27.5326C42.7902 27.5684 42.7411 27.6042 42.6905 27.6412C42.3502 27.8843 42.3502 27.8843 42.1623 27.8843C42.1448 27.8223 42.1274 27.7602 42.1094 27.6963C41.9326 27.1143 41.707 26.6486 41.3552 26.152C41.2384 25.9525 41.2384 25.9525 41.2384 25.6166C41.3993 25.4542 41.5537 25.3167 41.7318 25.1757C41.8069 25.1143 41.8069 25.1143 41.8834 25.0516C42.0315 24.9309 42.1806 24.8116 42.3302 24.6927C42.4013 24.6362 42.4723 24.5797 42.5454 24.5215C42.6775 24.4167 42.8095 24.3119 42.9414 24.2072C43.2304 23.9717 43.513 23.7294 43.7948 23.4854C43.8487 23.4387 43.9027 23.392 43.9583 23.344C44.2078 23.1268 44.4547 22.9079 44.6953 22.681C45.8996 21.548 45.8996 21.548 46.7134 21.9789Z"
          fill="#EE7F00"
        />
        <path
          d="M34.5037 36.167C34.8475 36.2075 34.9429 36.2924 35.1913 36.5344C35.3505 36.7827 35.4824 37.0436 35.6165 37.3061C36.6248 39.207 38.0217 40.7962 39.5324 42.3138C39.6206 42.4027 39.6206 42.4027 39.7107 42.4934C40.163 42.9443 40.6199 43.3971 41.1492 43.7574C41.3224 43.9254 41.3224 43.9254 41.4117 44.2193C41.4064 44.5133 41.4064 44.5133 41.3014 44.7181C40.8891 44.9523 40.4281 44.921 39.9753 44.8056C37.481 43.7283 35.4115 40.4741 34.4354 38.0462C34.2372 37.5005 34.0525 36.9529 34.0994 36.3665C34.2674 36.1985 34.2674 36.1985 34.5037 36.167Z"
          fill="#CDD409"
        />
        <path
          d="M26.6245 38.5501C26.9904 38.6152 27.3504 38.6981 27.7111 38.787C27.9978 38.8574 28.2854 38.9242 28.573 38.9907C28.6296 39.0038 28.6862 39.0169 28.7445 39.0304C29.2181 39.1387 29.6923 39.2259 30.173 39.2955C30.2352 39.3045 30.2975 39.3135 30.3616 39.3228C30.5436 39.3476 30.7255 39.3694 30.9079 39.39C30.9757 39.3979 31.0435 39.4058 31.1133 39.4139C31.5628 39.4611 32.0064 39.4785 32.4584 39.4799C32.5673 39.4807 32.676 39.4815 32.7881 39.4825C32.9567 39.4835 33.1254 39.4844 33.294 39.4823C34.2348 39.4723 34.2348 39.4723 34.5244 39.6848C34.6434 39.8408 34.6434 39.8408 34.7714 40.1459C34.6874 40.3979 34.6874 40.3979 34.5089 40.49C32.0739 41.3072 28.5752 41.2106 26.2361 40.1039C25.6919 39.8072 25.6919 39.8072 25.5327 39.558C25.4672 39.3046 25.4222 39.0633 25.4487 38.8021C25.7469 38.4078 26.1756 38.5075 26.6245 38.5501Z"
          fill="#FFCC00"
        />
        <path
          d="M48.6609 30.2832C48.9653 30.32 48.9653 30.32 49.1701 30.4775C49.3616 30.8606 49.3757 31.1597 49.3013 31.5798C49.0239 32.4118 48.4755 32.9874 47.8735 33.5955C47.8211 33.653 47.7687 33.7105 47.7147 33.7697C47.0355 34.4994 45.8922 35.5587 44.9339 35.8632C44.4888 35.7796 44.2035 35.4187 43.8998 35.1073C43.8185 35.0264 43.8185 35.0264 43.7356 34.9439C43.3381 34.5418 43.3381 34.5418 43.3381 34.3514C43.5216 34.2345 43.705 34.1268 43.8946 34.0207C44.5133 33.6615 45.0658 33.2522 45.618 32.7989C45.785 32.6624 45.9537 32.528 46.1225 32.3937C46.7092 31.9256 47.2756 31.4569 47.7895 30.9079C47.8697 30.8271 47.9502 30.7466 48.031 30.6664C48.1193 30.5781 48.1193 30.5781 48.2094 30.488C48.3774 30.32 48.3774 30.32 48.6609 30.2832Z"
          fill="#EE7F00"
        />
        <path
          d="M136.481 8.0917e-05C136.649 0.126063 136.649 0.126063 136.733 0.252045C136.788 0.168897 136.844 0.0857489 136.901 8.0917e-05C137.341 -0.0694287 137.583 -0.0231431 137.956 0.220549C138.292 0.465431 138.606 0.731089 138.916 1.00794C138.874 1.19008 138.832 1.34386 138.748 1.51187C138.665 1.51187 138.582 1.51187 138.496 1.51187C138.635 1.53958 138.774 1.5673 138.916 1.59585C138.889 1.70672 138.861 1.81758 138.832 1.93181C138.777 1.93181 138.722 1.93181 138.664 1.93181C138.669 2.00694 138.672 2.08208 138.676 2.15949C138.7 2.93403 138.654 3.55732 138.145 4.16798C137.812 4.33063 137.516 4.31199 137.153 4.28347C137.195 4.44976 137.195 4.44976 137.237 4.61942C137.181 4.61942 137.126 4.61942 137.069 4.61942C137.069 4.67485 137.069 4.73028 137.069 4.78739C137.013 4.78739 136.958 4.78739 136.901 4.78739C136.901 4.84283 136.901 4.89826 136.901 4.95537C136.762 4.95537 136.624 4.95537 136.481 4.95537C136.481 4.89994 136.481 4.84451 136.481 4.78739C136.425 4.78739 136.37 4.78739 136.313 4.78739C136.313 4.73196 136.313 4.67653 136.313 4.61942C136.257 4.61942 136.202 4.61942 136.145 4.61942C136.173 4.50855 136.2 4.39769 136.229 4.28347C136.179 4.28736 136.13 4.29126 136.078 4.29528C135.755 4.31002 135.531 4.31174 135.237 4.16798C134.677 3.49594 134.673 2.77517 134.717 1.93181C134.662 1.93181 134.606 1.93181 134.549 1.93181C134.521 1.82094 134.494 1.71008 134.465 1.59585C134.604 1.56814 134.742 1.54042 134.885 1.51187C134.802 1.51187 134.719 1.51187 134.633 1.51187C134.465 1.2599 134.465 1.2599 134.468 1.10045C134.588 0.839438 134.772 0.712418 134.995 0.535504C135.076 0.470328 135.157 0.405152 135.241 0.338001C135.682 0.0150186 135.939 -0.0429037 136.481 8.0917e-05ZM136.985 0.168057C136.985 0.389785 136.985 0.611513 136.985 0.839962C137.04 0.839962 137.096 0.839962 137.153 0.839962C137.177 0.787993 137.201 0.736025 137.227 0.682483C137.321 0.504009 137.321 0.504009 137.489 0.336033C137.35 0.336033 137.211 0.336033 137.069 0.336033C137.041 0.280601 137.013 0.225169 136.985 0.168057ZM135.893 0.336033C135.976 0.377607 135.976 0.377607 136.061 0.420021C136.061 0.475453 136.061 0.530885 136.061 0.587997C136.116 0.587997 136.172 0.587997 136.229 0.587997C136.229 0.504849 136.229 0.421701 136.229 0.336033C136.118 0.336033 136.007 0.336033 135.893 0.336033ZM135.557 0.587997C135.612 0.643429 135.668 0.698861 135.725 0.755973C135.902 0.729221 135.902 0.729221 136.061 0.671985C135.971 0.563108 135.971 0.563108 135.762 0.582747C135.694 0.584479 135.627 0.586212 135.557 0.587997ZM137.405 0.587997C137.405 0.671145 137.405 0.754293 137.405 0.839962C137.543 0.784528 137.682 0.729096 137.825 0.671985C137.825 0.644269 137.825 0.616553 137.825 0.587997C137.686 0.587997 137.547 0.587997 137.405 0.587997ZM134.885 0.839962C134.857 0.895394 134.83 0.950826 134.801 1.00794C134.856 1.00794 134.912 1.00794 134.969 1.00794C134.941 0.952506 134.914 0.897074 134.885 0.839962ZM135.137 1.09193C135.137 1.11964 135.137 1.14736 135.137 1.17591C135.515 1.32352 135.824 1.36009 136.229 1.34389C136.201 1.20531 136.173 1.06673 136.145 0.92395C135.763 0.908967 135.483 0.924126 135.137 1.09193ZM136.481 0.92395C136.565 1.09193 136.565 1.09193 136.565 1.09193L136.481 0.92395ZM136.985 1.09193C136.985 1.17507 136.985 1.25822 136.985 1.34389C137.442 1.36216 137.814 1.35265 138.244 1.17591C137.815 0.889859 137.441 0.787623 136.985 1.09193ZM135.137 1.42788C135.192 1.48331 135.248 1.53874 135.305 1.59585C135.305 1.54042 135.305 1.48499 135.305 1.42788C135.249 1.42788 135.194 1.42788 135.137 1.42788ZM138.077 1.42788C138.104 1.48331 138.132 1.53874 138.16 1.59585C138.188 1.54042 138.216 1.48499 138.244 1.42788C138.189 1.42788 138.134 1.42788 138.077 1.42788ZM134.969 1.59585C134.998 1.76175 134.998 1.76175 135.053 1.93181C135.108 1.95952 135.164 1.98724 135.221 2.01579C135.221 1.90493 135.221 1.79406 135.221 1.67984C135.138 1.65213 135.055 1.62441 134.969 1.59585ZM135.725 1.67984C135.725 1.92929 135.725 2.17873 135.725 2.43573C135.808 2.40802 135.891 2.3803 135.977 2.35174C135.921 2.18545 135.866 2.01915 135.809 1.84782C136.099 1.97254 136.099 1.97254 136.397 2.09978C136.424 1.98892 136.452 1.87805 136.481 1.76383C136.231 1.73611 135.982 1.7084 135.725 1.67984ZM138.328 1.59585C138.245 1.63743 138.245 1.63743 138.16 1.67984C138.188 1.79071 138.216 1.90157 138.244 2.01579C138.3 1.96036 138.355 1.90493 138.412 1.84782C138.385 1.76467 138.357 1.68152 138.328 1.59585ZM137.232 1.72184C137.122 1.73569 137.013 1.74955 136.901 1.76383C136.928 1.87469 136.956 1.98556 136.985 2.09978C137.096 2.07206 137.206 2.04435 137.321 2.01579C137.321 1.96036 137.321 1.90493 137.321 1.84782C137.404 1.84782 137.487 1.84782 137.573 1.84782C137.517 2.04183 137.462 2.23584 137.405 2.43573C137.488 2.43573 137.571 2.43573 137.657 2.43573C137.657 2.18629 137.657 1.93684 137.657 1.67984C137.514 1.67984 137.373 1.70385 137.232 1.72184ZM134.885 2.01579C134.751 2.63581 134.833 3.17622 135.121 3.74279C135.325 3.97001 135.425 4.01482 135.725 4.0315C135.725 3.74723 135.674 3.67732 135.525 3.44359C135.275 3.01289 135.198 2.58963 135.137 2.09978C135.054 2.07206 134.971 2.04435 134.885 2.01579ZM138.412 2.01579C138.329 2.05737 138.329 2.05737 138.244 2.09978C138.2 2.26971 138.162 2.44167 138.129 2.61421C138.032 3.0696 137.903 3.38919 137.657 3.77954C137.657 3.86269 137.657 3.94584 137.657 4.0315C137.946 4.01541 138.056 3.96885 138.26 3.75854C138.507 3.34606 138.564 2.82432 138.58 2.35174C138.51 2.15583 138.51 2.15583 138.412 2.01579ZM135.473 2.43573C135.557 2.60371 135.557 2.60371 135.557 2.60371L135.473 2.43573ZM137.825 2.43573C137.909 2.60371 137.909 2.60371 137.909 2.60371L137.825 2.43573ZM135.725 2.51972C135.78 2.74145 135.836 2.96318 135.893 3.19162C136.115 3.19162 136.336 3.19162 136.565 3.19162C136.565 2.9699 136.565 2.74817 136.565 2.51972C136.288 2.51972 136.01 2.51972 135.725 2.51972ZM136.901 2.51972C136.918 2.5994 136.935 2.67909 136.953 2.76119C136.964 2.84779 136.974 2.93441 136.985 3.02365C136.929 3.07908 136.874 3.13451 136.817 3.19162C137.038 3.19162 137.26 3.19162 137.489 3.19162C137.544 2.9699 137.599 2.74817 137.657 2.51972C137.407 2.51972 137.158 2.51972 136.901 2.51972ZM135.557 2.60371C135.641 2.93966 135.641 2.93966 135.641 2.93966L135.557 2.60371ZM137.741 2.60371C137.825 2.93966 137.825 2.93966 137.825 2.93966L137.741 2.60371ZM135.641 3.02365C135.725 3.19162 135.725 3.19162 135.725 3.19162L135.641 3.02365ZM137.657 3.02365C137.741 3.19162 137.741 3.19162 137.741 3.19162L137.657 3.02365ZM135.725 3.19162C135.809 3.3596 135.809 3.3596 135.809 3.3596L135.725 3.19162ZM137.573 3.19162C137.657 3.3596 137.657 3.3596 137.657 3.3596L137.573 3.19162ZM136.145 3.27561C136.228 3.40033 136.228 3.40033 136.313 3.52758C136.396 3.49986 136.479 3.47214 136.565 3.44359C136.565 3.38816 136.565 3.33272 136.565 3.27561C136.426 3.27561 136.288 3.27561 136.145 3.27561ZM136.817 3.27561C136.9 3.38648 136.983 3.49734 137.069 3.61156C137.18 3.5007 137.29 3.38984 137.405 3.27561C137.211 3.27561 137.017 3.27561 136.817 3.27561ZM136.229 3.61156C136.284 3.667 136.34 3.72243 136.397 3.77954C136.424 3.72411 136.452 3.66868 136.481 3.61156C136.398 3.61156 136.314 3.61156 136.229 3.61156ZM137.153 3.86353C137.153 3.94668 137.153 4.02982 137.153 4.11549C137.402 4.15706 137.402 4.15706 137.657 4.19948C137.429 3.97495 137.429 3.97495 137.153 3.86353ZM135.835 4.0735C135.799 4.11507 135.763 4.15664 135.725 4.19948C135.891 4.17176 136.057 4.14405 136.229 4.11549C136.229 4.06006 136.229 4.00463 136.229 3.94752C135.977 3.91961 135.977 3.91961 135.835 4.0735ZM136.397 4.28347C136.369 4.36661 136.341 4.44976 136.313 4.53543C136.368 4.53543 136.424 4.53543 136.481 4.53543C136.453 4.45228 136.425 4.36913 136.397 4.28347ZM136.901 4.28347C136.901 4.36661 136.901 4.44976 136.901 4.53543C136.956 4.50771 137.012 4.48 137.069 4.45144C137.013 4.39601 136.958 4.34058 136.901 4.28347Z"
          fill="#585858"
        />
        <path
          d="M136.985 26.4563C137.226 26.598 137.226 26.598 137.405 26.8762C137.465 27.3682 137.502 27.8682 137.237 28.304C137.098 28.2763 136.959 28.2486 136.817 28.22C136.83 28.1663 136.844 28.1126 136.859 28.0573C136.914 27.7181 136.907 27.3871 136.901 27.0442C136.818 27.0442 136.734 27.0442 136.649 27.0442C136.629 27.114 136.61 27.1838 136.59 27.2558C136.562 27.3471 136.535 27.4383 136.507 27.5324C136.481 27.623 136.455 27.7136 136.427 27.807C136.292 28.0972 136.183 28.1771 135.893 28.304C135.579 28.304 135.436 28.2573 135.189 28.0626C134.989 27.6771 134.998 27.303 135.053 26.8762C135.139 26.6797 135.139 26.6797 135.221 26.5403C135.47 26.5819 135.47 26.5819 135.725 26.6243C135.697 26.6814 135.669 26.7386 135.641 26.7975C135.543 27.0869 135.545 27.3284 135.557 27.6321C135.668 27.6321 135.779 27.6321 135.893 27.6321C135.914 27.5613 135.936 27.4904 135.957 27.4175C135.986 27.3255 136.015 27.2334 136.045 27.1387C136.073 27.0471 136.102 26.9554 136.131 26.8611C136.304 26.4434 136.566 26.3975 136.985 26.4563Z"
          fill="#585858"
        />
        <path
          d="M136.597 14.4148C136.66 14.4107 136.723 14.4065 136.787 14.4023C137.097 14.4714 137.216 14.6153 137.405 14.8662C137.436 15.1084 137.446 15.2847 137.431 15.5223C137.422 15.7215 137.414 15.9208 137.405 16.126C136.629 16.126 135.853 16.126 135.053 16.126C135.053 15.9597 135.053 15.7934 135.053 15.6221C135.302 15.6221 135.552 15.6221 135.809 15.6221C135.781 15.5667 135.753 15.5112 135.725 15.4541C135.686 14.9357 135.686 14.9357 135.835 14.6667C136.061 14.4498 136.296 14.4281 136.597 14.4148ZM136.145 15.1182C136.169 15.3959 136.169 15.3959 136.313 15.6221C136.665 15.6547 136.665 15.6547 136.98 15.5171C137.086 15.3732 137.086 15.3732 137.053 15.1917C136.998 15.0182 136.998 15.0182 136.817 14.9502C136.439 14.9108 136.439 14.9108 136.145 15.1182Z"
          fill="#585858"
        />
        <path
          d="M135.053 10.2471C135.829 10.2471 136.605 10.2471 137.405 10.2471C137.415 10.5485 137.415 10.5485 137.426 10.856C137.429 10.9187 137.431 10.9814 137.435 11.046C137.44 11.335 137.426 11.48 137.246 11.7103C136.917 11.9563 136.629 11.9587 136.229 11.9268C135.942 11.8286 135.9 11.7695 135.725 11.5069C135.697 10.975 135.697 10.975 135.809 10.751C135.559 10.751 135.31 10.751 135.053 10.751C135.053 10.5847 135.053 10.4184 135.053 10.2471ZM136.145 10.919C136.169 11.1967 136.169 11.1967 136.313 11.4229C136.671 11.4607 136.671 11.4607 136.975 11.2969C137.006 11.2553 137.037 11.2138 137.069 11.1709C137.013 11.0324 136.958 10.8938 136.901 10.751C136.479 10.7088 136.479 10.7088 136.145 10.919Z"
          fill="#585858"
        />
        <path
          d="M136.985 22.6764C137.242 22.8444 137.242 22.8444 137.405 23.0964C137.437 23.3321 137.425 23.5282 137.405 23.7683C137.599 23.796 137.793 23.8237 137.993 23.8522C137.993 24.0185 137.993 24.1848 137.993 24.3562C137.244 24.3562 136.496 24.3562 135.725 24.3562C135.718 24.1552 135.711 23.9543 135.704 23.7473C135.7 23.6845 135.698 23.6218 135.695 23.5572C135.69 23.2681 135.704 23.1231 135.884 22.8929C136.235 22.6303 136.556 22.6128 136.985 22.6764ZM136.145 23.3483C136.169 23.626 136.169 23.626 136.313 23.8522C136.665 23.8848 136.665 23.8848 136.98 23.7473C137.086 23.6033 137.086 23.6033 137.053 23.4218C136.998 23.2484 136.998 23.2484 136.817 23.1803C136.439 23.1409 136.439 23.1409 136.145 23.3483Z"
          fill="#585858"
        />
        <path
          d="M134.297 5.20703C135.849 5.20703 137.401 5.20703 139 5.20703C139 5.37333 139 5.53962 139 5.71096C137.448 5.71096 135.896 5.71096 134.297 5.71096C134.297 5.54466 134.297 5.37837 134.297 5.20703Z"
          fill="#EA1D25"
        />
        <path
          d="M135.809 36.1985C136.078 36.1911 136.348 36.1867 136.618 36.1827C136.693 36.1806 136.769 36.1785 136.847 36.1763C137.293 36.1715 137.61 36.1944 137.993 36.4505C138.09 36.6458 138.091 36.7685 138.092 36.9859C138.093 37.0506 138.095 37.1153 138.096 37.1821C138.075 37.3926 138.014 37.5282 137.909 37.7103C137.798 37.6826 137.687 37.6548 137.573 37.6263C137.6 37.5431 137.628 37.46 137.657 37.3743C137.662 37.2572 137.664 37.1398 137.662 37.0226C137.66 36.9169 137.658 36.8113 137.657 36.7024C137.573 36.7024 137.49 36.7024 137.405 36.7024C137.413 36.8046 137.422 36.9068 137.431 37.0121C137.429 37.299 137.405 37.3725 137.242 37.6263C136.942 37.8222 136.763 37.8566 136.41 37.8342C136.099 37.7655 135.979 37.6379 135.809 37.3743C135.774 37.1385 135.79 36.9432 135.809 36.7024C135.809 36.647 135.809 36.5916 135.809 36.5345C135.809 36.4236 135.809 36.3127 135.809 36.1985ZM136.14 36.8074C136.044 37.0285 136.044 37.0285 136.093 37.2274C136.23 37.4009 136.23 37.4009 136.513 37.4583C136.821 37.4899 136.821 37.4899 137.022 37.2955C137.064 37.2384 137.108 37.1812 137.153 37.1224C137.061 36.8494 137.061 36.8494 136.901 36.6184C136.468 36.5601 136.468 36.5601 136.14 36.8074Z"
          fill="#585858"
        />
        <path
          d="M135.137 31.1592C135.913 31.1592 136.689 31.1592 137.489 31.1592C137.461 31.2978 137.433 31.4363 137.405 31.5791C137.432 31.6346 137.46 31.69 137.489 31.7471C137.537 32.2733 137.537 32.2733 137.331 32.5345C137.006 32.7835 136.713 32.7995 136.313 32.755C135.929 32.5753 135.929 32.5753 135.809 32.335C135.793 32.1091 135.801 31.8901 135.809 31.6631C135.837 31.6354 135.864 31.6077 135.893 31.5791C135.643 31.5514 135.394 31.5237 135.137 31.4951C135.137 31.3843 135.137 31.2734 135.137 31.1592ZM136.135 31.7681C136.045 31.9897 136.045 31.9897 136.093 32.188C136.23 32.3605 136.23 32.3605 136.507 32.4242C136.83 32.4511 136.83 32.4511 137.064 32.2142C137.121 32.1433 137.178 32.0722 137.237 31.9991C137.159 31.7769 137.159 31.7769 136.985 31.5791C136.632 31.4835 136.388 31.4996 136.135 31.7681Z"
          fill="#585858"
        />
        <path
          d="M137.069 7.55897C137.304 7.74235 137.384 7.86763 137.439 8.16C137.462 8.50648 137.431 8.69185 137.247 8.99202C136.881 9.21937 136.566 9.23365 136.145 9.1547C135.928 8.99639 135.842 8.88653 135.725 8.65078C135.676 8.0577 135.676 8.05769 135.877 7.73219C136.232 7.39744 136.622 7.44438 137.069 7.55897ZM136.145 8.14688C136.124 8.36389 136.124 8.36389 136.145 8.56679C136.486 8.71536 136.486 8.71536 136.843 8.67706C137.01 8.56805 137.01 8.56805 137.069 8.31486C136.982 8.1226 136.982 8.1226 136.817 7.97891C136.503 7.93178 136.415 7.96651 136.145 8.14688Z"
          fill="#585858"
        />
        <path
          d="M135.725 24.6924C136.279 24.6924 136.833 24.6924 137.405 24.6924C137.411 24.895 137.418 25.0977 137.426 25.3065C137.429 25.37 137.431 25.4335 137.435 25.4989C137.439 25.7519 137.434 25.9135 137.279 26.1176C136.979 26.2412 136.694 26.2309 136.376 26.22C136.313 26.2188 136.251 26.2176 136.186 26.2164C136.032 26.2135 135.879 26.209 135.725 26.2042C135.725 26.0379 135.725 25.8716 135.725 25.7002C136.141 25.7002 136.556 25.7002 136.985 25.7002C136.957 25.5617 136.929 25.4231 136.901 25.2803C136.319 25.2387 136.319 25.2387 135.725 25.1963C135.725 25.03 135.725 24.8637 135.725 24.6924Z"
          fill="#585858"
        />
        <path
          d="M135.725 16.4619C136.279 16.4619 136.833 16.4619 137.405 16.4619C137.411 16.6646 137.418 16.8672 137.426 17.076C137.429 17.1395 137.431 17.203 137.435 17.2684C137.439 17.5214 137.434 17.683 137.279 17.8871C136.979 18.0107 136.694 18.0004 136.376 17.9895C136.313 17.9883 136.251 17.9871 136.186 17.986C136.032 17.983 135.879 17.9785 135.725 17.9737C135.725 17.8074 135.725 17.6411 135.725 17.4698C136.141 17.4698 136.556 17.4698 136.985 17.4698C136.957 17.3312 136.929 17.1926 136.901 17.0498C136.319 17.0083 136.319 17.0083 135.725 16.9658C135.725 16.7995 135.725 16.6332 135.725 16.4619Z"
          fill="#585858"
        />
        <path
          d="M136.733 20.9967C136.76 21.3015 136.788 21.6064 136.817 21.9205C136.872 21.9205 136.928 21.9205 136.985 21.9205C136.957 21.6434 136.929 21.3662 136.901 21.0806C137.012 21.0529 137.122 21.0252 137.237 20.9967C137.473 21.3513 137.462 21.6719 137.405 22.0885C137.246 22.3049 137.137 22.3906 136.901 22.5084C136.305 22.5572 136.305 22.5572 135.982 22.351C135.76 22.1225 135.73 22.0463 135.693 21.7263C135.725 21.4166 135.725 21.4166 135.898 21.1699C136.199 20.9584 136.372 20.9613 136.733 20.9967ZM136.229 21.4166C136.173 21.5275 136.118 21.6383 136.061 21.7525C136.144 21.8773 136.144 21.8773 136.229 22.0045C136.284 22.0045 136.34 22.0045 136.397 22.0045C136.397 21.8105 136.397 21.6165 136.397 21.4166C136.341 21.4166 136.286 21.4166 136.229 21.4166Z"
          fill="#585858"
        />
        <path
          d="M135.137 38.6348C135.455 38.6875 135.726 38.7805 136.02 38.9107C136.106 38.9483 136.192 38.9859 136.281 39.0247C136.369 39.064 136.458 39.1034 136.549 39.1439C136.639 39.1836 136.729 39.2233 136.823 39.2642C137.044 39.3619 137.267 39.4601 137.489 39.5586C137.475 39.7534 137.475 39.7534 137.405 39.9786C137.205 40.111 137.205 40.111 136.943 40.2217C136.849 40.262 136.755 40.3023 136.659 40.3439C136.511 40.4047 136.511 40.4047 136.36 40.4667C136.213 40.53 136.213 40.53 136.062 40.5945C135.336 40.9024 135.336 40.9024 135.137 40.9024C135.137 40.7639 135.137 40.6253 135.137 40.4825C135.185 40.4626 135.233 40.4427 135.282 40.4221C135.498 40.3322 135.714 40.242 135.93 40.1518C136.005 40.1204 136.08 40.0891 136.158 40.0568C136.23 40.0268 136.302 39.9967 136.376 39.9658C136.442 39.9381 136.508 39.9104 136.576 39.8818C136.73 39.8226 136.73 39.8226 136.817 39.7266C136.769 39.7085 136.721 39.6903 136.671 39.6716C136.455 39.5884 136.24 39.5027 136.024 39.4169C135.948 39.3884 135.874 39.3598 135.795 39.3304C135.724 39.3015 135.652 39.2726 135.578 39.2427C135.512 39.2167 135.445 39.1908 135.377 39.1641C135.221 39.0547 135.221 39.0547 135.156 38.833C135.15 38.7675 135.144 38.7021 135.137 38.6348Z"
          fill="#585858"
        />
        <path
          d="M137.237 12.9341C137.418 13.2062 137.427 13.2909 137.426 13.606C137.426 13.6788 137.426 13.7515 137.427 13.8265C137.405 14.026 137.405 14.026 137.237 14.2779C137.126 14.2502 137.015 14.2225 136.901 14.1939C136.928 13.9445 136.956 13.6951 136.985 13.438C136.929 13.4103 136.874 13.3826 136.817 13.3541C136.807 13.4066 136.798 13.4593 136.789 13.5135C136.776 13.5822 136.762 13.6508 136.749 13.7215C136.736 13.7897 136.723 13.8579 136.71 13.9282C136.649 14.11 136.649 14.11 136.397 14.2779C136.144 14.2652 136.017 14.2286 135.825 14.0627C135.674 13.7544 135.698 13.5283 135.725 13.1861C135.78 13.1029 135.836 13.0198 135.893 12.9341C136.004 12.9618 136.115 12.9896 136.229 13.0181C136.201 13.2676 136.173 13.517 136.145 13.774C136.2 13.774 136.256 13.774 136.313 13.774C136.335 13.6683 136.358 13.5627 136.381 13.4538C136.433 13.2532 136.478 13.1068 136.586 12.9288C136.822 12.8024 136.988 12.86 137.237 12.9341Z"
          fill="#585858"
        />
        <path
          d="M135.893 18.2258C136.004 18.2535 136.115 18.2812 136.229 18.3098C136.201 18.5315 136.173 18.7532 136.145 18.9817C136.2 18.9817 136.256 18.9817 136.313 18.9817C136.349 18.8414 136.349 18.8414 136.386 18.6982C136.481 18.3938 136.481 18.3938 136.649 18.2258C137.086 18.1793 137.086 18.1793 137.293 18.3246C137.447 18.5348 137.438 18.6817 137.436 18.9397C137.436 19.0202 137.437 19.1008 137.438 19.1838C137.4 19.4294 137.345 19.5031 137.153 19.6536C137.069 19.6259 136.986 19.5982 136.901 19.5696C136.928 19.2924 136.956 19.0153 136.985 18.7297C136.763 18.9518 136.685 19.198 136.565 19.4856C136.537 19.5133 136.509 19.541 136.481 19.5696C136.192 19.5486 136.192 19.5486 135.893 19.4856C135.685 19.1745 135.687 18.9224 135.725 18.5617C135.809 18.3518 135.809 18.3518 135.893 18.2258Z"
          fill="#585858"
        />
        <path
          d="M136.917 33.0024C137.023 33.0032 137.13 33.0039 137.24 33.0047C137.363 33.0061 137.363 33.0061 137.489 33.0076C137.473 33.0751 137.458 33.1427 137.442 33.2124C137.423 33.3189 137.423 33.3189 137.405 33.4276C137.432 33.4553 137.46 33.483 137.489 33.5115C137.52 33.8377 137.533 34.0306 137.353 34.3094C137.153 34.4354 137.153 34.4354 136.891 34.4354C136.649 34.3514 136.649 34.3514 136.539 34.2149C136.463 33.9547 136.428 33.6963 136.397 33.4276C136.314 33.4276 136.23 33.4276 136.145 33.4276C136.173 33.7047 136.2 33.9819 136.229 34.2674C136.118 34.2674 136.007 34.2674 135.893 34.2674C135.795 34.072 135.792 33.9443 135.788 33.7268C135.784 33.6282 135.784 33.6282 135.781 33.5276C135.816 33.2985 135.879 33.2307 136.061 33.0916C136.36 32.9919 136.602 32.9995 136.917 33.0024ZM136.733 33.4276C136.76 33.6216 136.788 33.8156 136.817 34.0155C136.928 34.0155 137.038 34.0155 137.153 34.0155C137.211 33.8603 137.211 33.8603 137.237 33.6795C137.181 33.5964 137.126 33.5132 137.069 33.4276C136.958 33.4276 136.847 33.4276 136.733 33.4276Z"
          fill="#585858"
        />
        <path
          d="M136.901 29.3123C137.198 29.451 137.305 29.5404 137.489 29.8162C137.526 30.1477 137.518 30.3456 137.368 30.6456C137.064 30.8977 136.786 30.9338 136.397 30.9081C136.143 30.7946 136.004 30.6833 135.809 30.4881C135.756 30.2295 135.758 29.9911 135.809 29.7323C136.137 29.3393 136.396 29.2388 136.901 29.3123ZM136.239 29.8529C136.18 29.924 136.121 29.995 136.061 30.0682C136.192 30.3512 136.259 30.467 136.554 30.5826C136.836 30.5983 136.836 30.5983 137.058 30.3674C137.117 30.2963 137.176 30.2253 137.237 30.1522C137.106 29.8692 137.038 29.7533 136.743 29.6378C136.461 29.6221 136.461 29.6221 136.239 29.8529Z"
          fill="#585858"
        />
        <path
          d="M134.297 5.20703C135.073 5.20703 135.849 5.20703 136.649 5.20703C136.649 5.37333 136.649 5.53962 136.649 5.71096C135.873 5.71096 135.097 5.71096 134.297 5.71096C134.297 5.54466 134.297 5.37837 134.297 5.20703Z"
          fill="#FFC20D"
        />
        <path
          d="M135.725 19.6533C135.863 19.6533 136.002 19.6533 136.145 19.6533C136.172 19.8196 136.2 19.9859 136.229 20.1572C136.811 20.1988 136.811 20.1988 137.405 20.2412C137.405 20.4075 137.405 20.5738 137.405 20.7452C136.85 20.7452 136.296 20.7452 135.725 20.7452C135.725 20.3849 135.725 20.0245 135.725 19.6533Z"
          fill="#585858"
        />
        <path
          d="M135.725 12.1787C136.279 12.1787 136.833 12.1787 137.405 12.1787C137.405 12.345 137.405 12.5113 137.405 12.6826C136.85 12.6826 136.296 12.6826 135.725 12.6826C135.725 12.5163 135.725 12.35 135.725 12.1787Z"
          fill="#585858"
        />
        <path
          d="M135.725 9.40625C136.279 9.40625 136.833 9.40625 137.405 9.40625C137.405 9.57255 137.405 9.73884 137.405 9.91018C136.85 9.91018 136.296 9.91018 135.725 9.91018C135.725 9.74388 135.725 9.57759 135.725 9.40625Z"
          fill="#585858"
        />
        <path
          d="M135.137 34.7715C135.913 34.7715 136.689 34.7715 137.489 34.7715C137.489 34.8823 137.489 34.9932 137.489 35.1074C136.713 35.1074 135.936 35.1074 135.137 35.1074C135.137 34.9966 135.137 34.8857 135.137 34.7715Z"
          fill="#585858"
        />
        <path
          d="M136.649 5.20703C137.037 5.20703 137.425 5.20703 137.825 5.20703C137.825 5.37333 137.825 5.53962 137.825 5.71096C137.437 5.71096 137.048 5.71096 136.649 5.71096C136.649 5.54466 136.649 5.37837 136.649 5.20703Z"
          fill="#263D7B"
        />
        <path
          d="M135.809 38.1309C136.363 38.1309 136.917 38.1309 137.489 38.1309C137.489 38.2417 137.489 38.3526 137.489 38.4668C136.934 38.4668 136.38 38.4668 135.809 38.4668C135.809 38.3559 135.809 38.2451 135.809 38.1309Z"
          fill="#585858"
        />
        <path
          d="M135.809 35.5273C136.363 35.5273 136.917 35.5273 137.489 35.5273C137.489 35.6382 137.489 35.7491 137.489 35.8633C136.934 35.8633 136.38 35.8633 135.809 35.8633C135.809 35.7524 135.809 35.6416 135.809 35.5273Z"
          fill="#585858"
        />
        <path
          d="M135.053 12.1787C135.192 12.1787 135.33 12.1787 135.473 12.1787C135.473 12.345 135.473 12.5113 135.473 12.6826C135.334 12.6826 135.196 12.6826 135.053 12.6826C135.053 12.5163 135.053 12.35 135.053 12.1787Z"
          fill="#585858"
        />
        <path
          d="M135.053 9.40625C135.192 9.40625 135.33 9.40625 135.473 9.40625C135.473 9.57255 135.473 9.73884 135.473 9.91018C135.334 9.91018 135.196 9.91018 135.053 9.91018C135.053 9.74388 135.053 9.57759 135.053 9.40625Z"
          fill="#585858"
        />
        <path
          d="M135.137 38.0469C135.276 38.0469 135.414 38.0469 135.557 38.0469C135.557 38.1855 135.557 38.324 135.557 38.4668C135.418 38.4668 135.28 38.4668 135.137 38.4668C135.137 38.3282 135.137 38.1897 135.137 38.0469Z"
          fill="#585858"
        />
        <path
          d="M135.137 35.4434C135.276 35.4434 135.414 35.4434 135.557 35.4434C135.557 35.5819 135.557 35.7205 135.557 35.8633C135.418 35.8633 135.28 35.8633 135.137 35.8633C135.137 35.7247 135.137 35.5861 135.137 35.4434Z"
          fill="#585858"
        />
      </g>
    </g>
    <defs>
      <clipPath id="clip0_16514_6216">
        <rect width="139" height="44.9335" fill="white" />
      </clipPath>
    </defs>
  </svg>